<svg width="24" height="25" viewBox="0 0 24 25" fill="none" xmlns="http://www.w3.org/2000/svg">
<g clip-path="url(#clip0_1_1366)">
<path d="M19.5 3.8208H4.5C4.08579 3.8208 3.75 4.15659 3.75 4.5708V19.5708C3.75 19.985 4.08579 20.3208 4.5 20.3208H19.5C19.9142 20.3208 20.25 19.985 20.25 19.5708V4.5708C20.25 4.15659 19.9142 3.8208 19.5 3.8208Z" stroke="black" stroke-width="2" stroke-linecap="round" stroke-linejoin="round"/>
<path d="M16.5 2.3208V5.3208" stroke="black" stroke-width="2" stroke-linecap="round" stroke-linejoin="round"/>
<path d="M7.5 2.3208V5.3208" stroke="black" stroke-width="2" stroke-linecap="round" stroke-linejoin="round"/>
<path d="M3.75 8.3208H20.25" stroke="black" stroke-width="2" stroke-linecap="round" stroke-linejoin="round"/>
<path d="M12 13.5708C12.6213 13.5708 13.125 13.0671 13.125 12.4458C13.125 11.8245 12.6213 11.3208 12 11.3208C11.3787 11.3208 10.875 11.8245 10.875 12.4458C10.875 13.0671 11.3787 13.5708 12 13.5708Z" fill="black"/>
<path d="M16.125 13.5708C16.7463 13.5708 17.25 13.0671 17.25 12.4458C17.25 11.8245 16.7463 11.3208 16.125 11.3208C15.5037 11.3208 15 11.8245 15 12.4458C15 13.0671 15.5037 13.5708 16.125 13.5708Z" fill="black"/>
<path d="M7.875 17.3208C8.49632 17.3208 9 16.8171 9 16.1958C9 15.5745 8.49632 15.0708 7.875 15.0708C7.25368 15.0708 6.75 15.5745 6.75 16.1958C6.75 16.8171 7.25368 17.3208 7.875 17.3208Z" fill="black"/>
<path d="M12 17.3208C12.6213 17.3208 13.125 16.8171 13.125 16.1958C13.125 15.5745 12.6213 15.0708 12 15.0708C11.3787 15.0708 10.875 15.5745 10.875 16.1958C10.875 16.8171 11.3787 17.3208 12 17.3208Z" fill="black"/>
<path d="M16.125 17.3208C16.7463 17.3208 17.25 16.8171 17.25 16.1958C17.25 15.5745 16.7463 15.0708 16.125 15.0708C15.5037 15.0708 15 15.5745 15 16.1958C15 16.8171 15.5037 17.3208 16.125 17.3208Z" fill="black"/>
</g>
<defs>
<clipPath id="clip0_1_1366">
<rect width="24" height="24" fill="white" transform="translate(0 0.0708008)"/>
</clipPath>
</defs>
</svg>
