<svg width="130" height="42" viewBox="0 0 130 42" fill="none" xmlns="http://www.w3.org/2000/svg">
<rect width="40" height="42" rx="8" fill="#062361"/>
<rect x="27.2452" y="10.8915" width="5.74565" height="21.7576" rx="2.87282" transform="rotate(30.0961 27.2452 10.8915)" stroke="#1645AA" stroke-width="3.2006"/>
<path d="M7.97272 17.2976C6.66101 15.1457 7.34212 12.3379 9.49403 11.0262C11.5849 9.75167 14.3091 10.3547 15.6667 12.3926L22.8987 23.2482C23.8615 24.6933 25.4969 25.5451 27.2329 25.5057L27.2953 25.5043L24.1376 30.9239C23.7729 31.5498 23.2639 32.0796 22.653 32.4691C20.5052 33.8382 17.6517 33.1763 16.326 31.0014L7.97272 17.2976Z" fill="#1B5EED"/>
<path d="M62.2337 14.49L56.3937 29H53.6737L47.8337 14.49H50.2537C50.5137 14.49 50.7237 14.5533 50.8837 14.68C51.0503 14.8 51.1737 14.9567 51.2537 15.15L54.3937 23.51C54.5137 23.8233 54.6303 24.1667 54.7437 24.54C54.8637 24.9067 54.9737 25.2933 55.0737 25.7C55.1603 25.2933 55.2537 24.9067 55.3537 24.54C55.4603 24.1667 55.5737 23.8233 55.6937 23.51L58.8137 15.15C58.8803 14.9833 58.997 14.8333 59.1637 14.7C59.337 14.56 59.5503 14.49 59.8037 14.49H62.2337ZM68.1155 22.63C68.1155 22.3433 68.0755 22.07 67.9955 21.81C67.9222 21.55 67.8022 21.32 67.6355 21.12C67.4689 20.92 67.2589 20.7633 67.0055 20.65C66.7522 20.53 66.4489 20.47 66.0955 20.47C65.4355 20.47 64.9189 20.6567 64.5455 21.03C64.1722 21.4033 63.9289 21.9367 63.8155 22.63H68.1155ZM63.7755 24.27C63.8622 25.2367 64.1355 25.9433 64.5955 26.39C65.0622 26.8367 65.6689 27.06 66.4155 27.06C66.7955 27.06 67.1222 27.0167 67.3955 26.93C67.6755 26.8367 67.9189 26.7367 68.1255 26.63C68.3389 26.5167 68.5289 26.4167 68.6955 26.33C68.8689 26.2367 69.0389 26.19 69.2055 26.19C69.4189 26.19 69.5855 26.27 69.7055 26.43L70.5055 27.43C70.2122 27.77 69.8889 28.0533 69.5355 28.28C69.1822 28.5 68.8155 28.6767 68.4355 28.81C68.0555 28.9367 67.6722 29.0233 67.2855 29.07C66.8989 29.1233 66.5255 29.15 66.1655 29.15C65.4455 29.15 64.7722 29.0333 64.1455 28.8C63.5255 28.56 62.9822 28.21 62.5155 27.75C62.0555 27.2833 61.6922 26.7067 61.4255 26.02C61.1589 25.3333 61.0255 24.5367 61.0255 23.63C61.0255 22.93 61.1389 22.27 61.3655 21.65C61.5989 21.03 61.9322 20.49 62.3655 20.03C62.7989 19.57 63.3255 19.2067 63.9455 18.94C64.5655 18.6667 65.2655 18.53 66.0455 18.53C66.7055 18.53 67.3122 18.6367 67.8655 18.85C68.4255 19.0567 68.9055 19.36 69.3055 19.76C69.7122 20.16 70.0255 20.6533 70.2455 21.24C70.4722 21.82 70.5855 22.4833 70.5855 23.23C70.5855 23.4367 70.5755 23.6067 70.5555 23.74C70.5355 23.8733 70.5022 23.98 70.4555 24.06C70.4089 24.14 70.3455 24.1967 70.2655 24.23C70.1855 24.2567 70.0822 24.27 69.9555 24.27H63.7755ZM75.741 29.16C75.2743 29.16 74.861 29.0933 74.501 28.96C74.141 28.82 73.8377 28.6233 73.591 28.37C73.3443 28.1167 73.1577 27.81 73.031 27.45C72.9043 27.09 72.841 26.6833 72.841 26.23V20.67H71.871C71.7243 20.67 71.5977 20.6233 71.491 20.53C71.391 20.4367 71.341 20.2967 71.341 20.11V19.03L72.991 18.73L73.551 16.06C73.6243 15.76 73.8277 15.61 74.161 15.61H75.601V18.75H78.261V20.67H75.601V26.05C75.601 26.3367 75.6677 26.5633 75.801 26.73C75.941 26.8967 76.1377 26.98 76.391 26.98C76.5243 26.98 76.6377 26.9667 76.731 26.94C76.8243 26.9067 76.9043 26.8733 76.971 26.84C77.0377 26.8 77.0977 26.7667 77.151 26.74C77.211 26.7067 77.271 26.69 77.331 26.69C77.411 26.69 77.4777 26.71 77.531 26.75C77.5843 26.7833 77.6377 26.8433 77.691 26.93L78.521 28.25C78.141 28.55 77.711 28.7767 77.231 28.93C76.751 29.0833 76.2543 29.16 75.741 29.16ZM82.5196 14.09V29H79.7596V14.09H82.5196ZM87.6577 18.69V29H84.8977V18.69H87.6577ZM87.9877 15.76C87.9877 15.9933 87.9411 16.21 87.8477 16.41C87.7544 16.61 87.6277 16.7867 87.4677 16.94C87.3144 17.0933 87.1311 17.2133 86.9177 17.3C86.7111 17.3867 86.4877 17.43 86.2477 17.43C86.0211 17.43 85.8044 17.3867 85.5977 17.3C85.3977 17.2133 85.2211 17.0933 85.0677 16.94C84.9144 16.7867 84.7911 16.61 84.6977 16.41C84.6111 16.21 84.5677 15.9933 84.5677 15.76C84.5677 15.5267 84.6111 15.31 84.6977 15.11C84.7911 14.9033 84.9144 14.7233 85.0677 14.57C85.2211 14.4167 85.3977 14.2967 85.5977 14.21C85.8044 14.1233 86.0211 14.08 86.2477 14.08C86.4877 14.08 86.7111 14.1233 86.9177 14.21C87.1311 14.2967 87.3144 14.4167 87.4677 14.57C87.6277 14.7233 87.7544 14.9033 87.8477 15.11C87.9411 15.31 87.9877 15.5267 87.9877 15.76ZM92.573 19.89C92.7797 19.69 92.993 19.5067 93.213 19.34C93.4397 19.1733 93.6764 19.03 93.923 18.91C94.1764 18.79 94.4464 18.6967 94.733 18.63C95.0264 18.5633 95.343 18.53 95.683 18.53C96.243 18.53 96.7397 18.6267 97.173 18.82C97.6064 19.0133 97.9697 19.2833 98.263 19.63C98.563 19.9767 98.7864 20.39 98.933 20.87C99.0864 21.35 99.163 21.8767 99.163 22.45V29H96.413V22.45C96.413 21.8767 96.2797 21.4333 96.013 21.12C95.7464 20.8 95.353 20.64 94.833 20.64C94.4464 20.64 94.083 20.7233 93.743 20.89C93.403 21.0567 93.0797 21.29 92.773 21.59V29H90.013V18.69H91.713C92.0597 18.69 92.2897 18.85 92.403 19.17L92.573 19.89ZM104.121 14.09V22.55H104.581C104.754 22.55 104.891 22.5267 104.991 22.48C105.091 22.4267 105.191 22.3333 105.291 22.2L107.571 19.16C107.684 19.0067 107.811 18.89 107.951 18.81C108.097 18.73 108.281 18.69 108.501 18.69H111.021L108.061 22.45C107.827 22.7633 107.557 23.01 107.251 23.19C107.404 23.2967 107.537 23.42 107.651 23.56C107.764 23.7 107.874 23.8567 107.981 24.03L111.171 29H108.691C108.477 29 108.294 28.9667 108.141 28.9C107.987 28.8267 107.861 28.7 107.761 28.52L105.441 24.73C105.347 24.57 105.251 24.4667 105.151 24.42C105.051 24.3733 104.901 24.35 104.701 24.35H104.121V29H101.361V14.09H104.121ZM118.689 20.81C118.615 20.9233 118.539 21.0067 118.459 21.06C118.385 21.1067 118.282 21.13 118.149 21.13C118.015 21.13 117.879 21.0967 117.739 21.03C117.599 20.9633 117.442 20.8933 117.269 20.82C117.095 20.74 116.895 20.6667 116.669 20.6C116.449 20.5333 116.192 20.5 115.899 20.5C115.452 20.5 115.105 20.5933 114.859 20.78C114.612 20.96 114.489 21.2 114.489 21.5C114.489 21.7067 114.559 21.88 114.699 22.02C114.839 22.16 115.022 22.2833 115.249 22.39C115.482 22.49 115.745 22.5867 116.039 22.68C116.332 22.7667 116.632 22.8633 116.939 22.97C117.252 23.0767 117.555 23.2 117.849 23.34C118.142 23.48 118.402 23.6567 118.629 23.87C118.862 24.0767 119.049 24.33 119.189 24.63C119.329 24.9233 119.399 25.28 119.399 25.7C119.399 26.2 119.305 26.6633 119.119 27.09C118.939 27.51 118.672 27.8733 118.319 28.18C117.965 28.4867 117.525 28.7267 116.999 28.9C116.472 29.0733 115.865 29.16 115.179 29.16C114.825 29.16 114.475 29.1267 114.129 29.06C113.782 29 113.452 28.9133 113.139 28.8C112.825 28.68 112.532 28.5433 112.259 28.39C111.985 28.2367 111.749 28.07 111.549 27.89L112.189 26.86C112.262 26.74 112.352 26.6467 112.459 26.58C112.572 26.5133 112.715 26.48 112.889 26.48C113.055 26.48 113.209 26.5233 113.349 26.61C113.489 26.69 113.645 26.78 113.819 26.88C113.992 26.9733 114.195 27.0633 114.429 27.15C114.669 27.23 114.965 27.27 115.319 27.27C115.585 27.27 115.815 27.24 116.009 27.18C116.202 27.12 116.359 27.04 116.479 26.94C116.599 26.8333 116.685 26.7167 116.739 26.59C116.799 26.4567 116.829 26.32 116.829 26.18C116.829 25.9533 116.755 25.77 116.609 25.63C116.469 25.4833 116.282 25.3567 116.049 25.25C115.822 25.1433 115.559 25.0467 115.259 24.96C114.959 24.8733 114.652 24.7767 114.339 24.67C114.032 24.5633 113.729 24.4367 113.429 24.29C113.135 24.1433 112.872 23.96 112.639 23.74C112.412 23.5133 112.225 23.2367 112.079 22.91C111.939 22.5833 111.869 22.1867 111.869 21.72C111.869 21.2933 111.952 20.89 112.119 20.51C112.285 20.1233 112.535 19.7833 112.869 19.49C113.202 19.1967 113.615 18.9633 114.109 18.79C114.609 18.6167 115.185 18.53 115.839 18.53C116.572 18.53 117.239 18.65 117.839 18.89C118.439 19.13 118.932 19.4433 119.319 19.83L118.689 20.81Z" fill="black"/>
<path d="M124.866 17.44C125.066 17.44 125.226 17.424 125.346 17.392C125.47 17.36 125.564 17.312 125.628 17.248C125.696 17.184 125.74 17.106 125.76 17.014C125.784 16.922 125.796 16.816 125.796 16.696C125.796 16.58 125.786 16.48 125.766 16.396C125.746 16.308 125.706 16.236 125.646 16.18C125.59 16.12 125.508 16.076 125.4 16.048C125.292 16.016 125.152 16 124.98 16H124.404V17.44H124.866ZM127.512 20.272C127.844 19.94 128.104 19.55 128.292 19.102C128.48 18.654 128.574 18.168 128.574 17.644C128.574 17.3 128.532 16.97 128.448 16.654C128.364 16.338 128.244 16.044 128.088 15.772C127.936 15.496 127.752 15.246 127.536 15.022C127.32 14.798 127.078 14.606 126.81 14.446C126.546 14.286 126.26 14.164 125.952 14.08C125.644 13.992 125.324 13.948 124.992 13.948C124.492 13.948 124.026 14.044 123.594 14.236C123.162 14.428 122.786 14.69 122.466 15.022C122.15 15.354 121.9 15.746 121.716 16.198C121.536 16.646 121.446 17.128 121.446 17.644C121.446 18.16 121.536 18.642 121.716 19.09C121.9 19.534 122.15 19.922 122.466 20.254C122.786 20.582 123.162 20.842 123.594 21.034C124.026 21.222 124.492 21.316 124.992 21.316C125.476 21.316 125.928 21.23 126.348 21.058C126.768 20.882 127.138 20.638 127.458 20.326H126.168C125.972 20.326 125.834 20.256 125.754 20.116L125.028 18.622C124.988 18.562 124.942 18.518 124.89 18.49C124.842 18.458 124.768 18.442 124.668 18.442H124.404V20.326H122.97V14.932H124.98C125.752 14.932 126.316 15.068 126.672 15.34C127.028 15.612 127.206 16.002 127.206 16.51C127.206 16.858 127.118 17.166 126.942 17.434C126.77 17.702 126.498 17.9 126.126 18.028C126.23 18.084 126.316 18.156 126.384 18.244C126.452 18.328 126.516 18.428 126.576 18.544L127.512 20.272ZM124.992 13.198C125.4 13.198 125.794 13.252 126.174 13.36C126.554 13.464 126.908 13.612 127.236 13.804C127.568 13.996 127.868 14.228 128.136 14.5C128.408 14.772 128.64 15.072 128.832 15.4C129.028 15.728 129.178 16.082 129.282 16.462C129.39 16.842 129.444 17.236 129.444 17.644C129.444 18.052 129.39 18.446 129.282 18.826C129.178 19.202 129.028 19.554 128.832 19.882C128.64 20.21 128.408 20.51 128.136 20.782C127.868 21.054 127.568 21.286 127.236 21.478C126.908 21.67 126.554 21.82 126.174 21.928C125.794 22.032 125.4 22.084 124.992 22.084C124.584 22.084 124.19 22.032 123.81 21.928C123.434 21.82 123.082 21.67 122.754 21.478C122.426 21.286 122.126 21.054 121.854 20.782C121.582 20.51 121.35 20.21 121.158 19.882C120.966 19.554 120.816 19.202 120.708 18.826C120.604 18.446 120.552 18.052 120.552 17.644C120.552 17.236 120.604 16.842 120.708 16.462C120.816 16.082 120.966 15.728 121.158 15.4C121.35 15.072 121.582 14.772 121.854 14.5C122.126 14.228 122.426 13.996 122.754 13.804C123.082 13.612 123.434 13.464 123.81 13.36C124.19 13.252 124.584 13.198 124.992 13.198Z" fill="black"/>
</svg>
