<svg width="166" height="19" viewBox="0 0 166 19" fill="none" xmlns="http://www.w3.org/2000/svg">
<path d="M13.68 13.7868C13.88 13.7868 14.048 13.8588 14.184 14.0028L15.612 15.5268C14.908 16.4228 14.032 17.1028 12.984 17.5668C11.944 18.0308 10.704 18.2628 9.264 18.2628C7.96 18.2628 6.788 18.0428 5.748 17.6028C4.708 17.1548 3.824 16.5348 3.096 15.7428C2.368 14.9508 1.808 14.0108 1.416 12.9228C1.024 11.8348 0.828 10.6468 0.828 9.3588C0.828 8.4948 0.92 7.6748 1.104 6.8988C1.296 6.1148 1.572 5.3948 1.932 4.7388C2.292 4.0828 2.724 3.4908 3.228 2.9628C3.74 2.4348 4.316 1.9868 4.956 1.6188C5.596 1.2428 6.292 0.9588 7.044 0.7668C7.804 0.5668 8.612 0.466799 9.468 0.466799C10.108 0.466799 10.712 0.522799 11.28 0.6348C11.856 0.7468 12.392 0.902801 12.888 1.1028C13.384 1.3028 13.84 1.5468 14.256 1.8348C14.68 2.1148 15.06 2.4228 15.396 2.7588L14.184 4.4148C14.112 4.5188 14.02 4.6108 13.908 4.6908C13.796 4.7708 13.644 4.8108 13.452 4.8108C13.26 4.8108 13.064 4.7428 12.864 4.6068C12.672 4.4708 12.432 4.3188 12.144 4.1508C11.864 3.9828 11.508 3.8308 11.076 3.6948C10.652 3.5588 10.112 3.4908 9.456 3.4908C8.728 3.4908 8.06 3.6228 7.452 3.8868C6.844 4.1508 6.32 4.5348 5.88 5.0388C5.448 5.5348 5.112 6.1468 4.872 6.8748C4.632 7.6028 4.512 8.4308 4.512 9.3588C4.512 10.2948 4.64 11.1308 4.896 11.8668C5.16 12.5948 5.516 13.2108 5.964 13.7148C6.42 14.2188 6.948 14.6028 7.548 14.8668C8.156 15.1228 8.804 15.2508 9.492 15.2508C9.9 15.2508 10.268 15.2308 10.596 15.1908C10.932 15.1508 11.24 15.0828 11.52 14.9868C11.808 14.8908 12.076 14.7668 12.324 14.6148C12.58 14.4628 12.836 14.2708 13.092 14.0388C13.18 13.9668 13.272 13.9068 13.368 13.8588C13.464 13.8108 13.568 13.7868 13.68 13.7868ZM20.2729 7.7388C20.6649 7.0348 21.1169 6.4788 21.6289 6.0708C22.1409 5.6628 22.7409 5.4588 23.4289 5.4588C23.9889 5.4588 24.4449 5.5908 24.7969 5.8548L24.5809 8.3028C24.5409 8.4628 24.4769 8.5748 24.3889 8.6388C24.3089 8.6948 24.1969 8.7228 24.0529 8.7228C23.9249 8.7228 23.7409 8.7068 23.5009 8.6748C23.2609 8.6348 23.0369 8.6148 22.8289 8.6148C22.5249 8.6148 22.2529 8.6588 22.0129 8.7468C21.7809 8.8348 21.5729 8.9588 21.3889 9.1188C21.2049 9.2788 21.0369 9.4748 20.8849 9.7068C20.7409 9.9388 20.6049 10.2028 20.4769 10.4988V18.0708H17.1649V5.6988H19.1209C19.4569 5.6988 19.6889 5.7588 19.8169 5.8788C19.9449 5.9988 20.0369 6.2068 20.0929 6.5028L20.2729 7.7388ZM33.7785 10.4268C33.7785 10.0828 33.7305 9.7548 33.6345 9.4428C33.5465 9.1308 33.4025 8.8548 33.2025 8.6148C33.0025 8.3748 32.7505 8.1868 32.4465 8.0508C32.1425 7.9068 31.7785 7.8348 31.3545 7.8348C30.5625 7.8348 29.9425 8.0588 29.4945 8.5068C29.0465 8.9548 28.7545 9.5948 28.6185 10.4268H33.7785ZM28.5705 12.3948C28.6745 13.5548 29.0025 14.4028 29.5545 14.9388C30.1145 15.4748 30.8425 15.7428 31.7385 15.7428C32.1945 15.7428 32.5865 15.6908 32.9145 15.5868C33.2505 15.4748 33.5425 15.3548 33.7905 15.2268C34.0465 15.0908 34.2745 14.9708 34.4745 14.8668C34.6825 14.7548 34.8865 14.6988 35.0865 14.6988C35.3425 14.6988 35.5425 14.7948 35.6865 14.9868L36.6465 16.1868C36.2945 16.5948 35.9065 16.9348 35.4825 17.2068C35.0585 17.4708 34.6185 17.6828 34.1625 17.8428C33.7065 17.9948 33.2465 18.0988 32.7825 18.1548C32.3185 18.2188 31.8705 18.2508 31.4385 18.2508C30.5745 18.2508 29.7665 18.1108 29.0145 17.8308C28.2705 17.5428 27.6185 17.1228 27.0585 16.5708C26.5065 16.0108 26.0705 15.3188 25.7505 14.4948C25.4305 13.6708 25.2705 12.7148 25.2705 11.6268C25.2705 10.7868 25.4065 9.9948 25.6785 9.2508C25.9585 8.5068 26.3585 7.8588 26.8785 7.3068C27.3985 6.7548 28.0305 6.3188 28.7745 5.9988C29.5185 5.6708 30.3585 5.5068 31.2945 5.5068C32.0865 5.5068 32.8145 5.6348 33.4785 5.8908C34.1505 6.1388 34.7265 6.5028 35.2065 6.9828C35.6945 7.4628 36.0705 8.0548 36.3345 8.7588C36.6065 9.4548 36.7425 10.2508 36.7425 11.1468C36.7425 11.3948 36.7305 11.5988 36.7065 11.7588C36.6825 11.9188 36.6425 12.0468 36.5865 12.1428C36.5305 12.2388 36.4545 12.3068 36.3585 12.3468C36.2625 12.3788 36.1385 12.3948 35.9865 12.3948H28.5705ZM45.2657 12.8988C44.4577 12.9388 43.7857 13.0108 43.2497 13.1148C42.7137 13.2108 42.2857 13.3388 41.9657 13.4988C41.6537 13.6588 41.4297 13.8428 41.2937 14.0508C41.1657 14.2508 41.1017 14.4708 41.1017 14.7108C41.1017 15.1908 41.2337 15.5308 41.4977 15.7308C41.7697 15.9308 42.1457 16.0308 42.6257 16.0308C43.1777 16.0308 43.6537 15.9348 44.0537 15.7428C44.4617 15.5428 44.8657 15.2348 45.2657 14.8188V12.8988ZM38.5217 7.4148C39.2497 6.7588 40.0537 6.2708 40.9337 5.9508C41.8137 5.6228 42.7657 5.4588 43.7897 5.4588C44.5257 5.4588 45.1817 5.5788 45.7577 5.8188C46.3417 6.0588 46.8337 6.3948 47.2337 6.8268C47.6417 7.2508 47.9537 7.7588 48.1697 8.3508C48.3857 8.9428 48.4937 9.5908 48.4937 10.2948V18.0708H46.9817C46.6697 18.0708 46.4297 18.0268 46.2617 17.9388C46.1017 17.8508 45.9697 17.6668 45.8657 17.3868L45.6017 16.5948C45.2897 16.8668 44.9857 17.1068 44.6897 17.3148C44.4017 17.5228 44.1017 17.6988 43.7897 17.8428C43.4777 17.9788 43.1417 18.0828 42.7817 18.1548C42.4297 18.2268 42.0337 18.2628 41.5937 18.2628C41.0497 18.2628 40.5537 18.1908 40.1057 18.0468C39.6577 17.9028 39.2697 17.6908 38.9417 17.4108C38.6217 17.1228 38.3737 16.7668 38.1977 16.3428C38.0217 15.9188 37.9337 15.4308 37.9337 14.8788C37.9337 14.4228 38.0497 13.9668 38.2817 13.5108C38.5137 13.0548 38.9097 12.6428 39.4697 12.2748C40.0377 11.8988 40.7897 11.5908 41.7257 11.3508C42.6697 11.1028 43.8497 10.9628 45.2657 10.9308V10.2948C45.2657 9.5188 45.1017 8.9508 44.7737 8.5908C44.4457 8.2228 43.9737 8.0388 43.3577 8.0388C42.9017 8.0388 42.5217 8.0948 42.2177 8.2068C41.9137 8.3108 41.6457 8.4268 41.4137 8.5548C41.1897 8.6748 40.9777 8.7908 40.7777 8.9028C40.5777 9.0068 40.3457 9.0588 40.0817 9.0588C39.8497 9.0588 39.6537 9.0028 39.4937 8.8908C39.3417 8.7708 39.2137 8.6308 39.1097 8.4708L38.5217 7.4148ZM55.1634 18.2628C54.6034 18.2628 54.1074 18.1828 53.6754 18.0228C53.2434 17.8548 52.8794 17.6188 52.5834 17.3148C52.2874 17.0108 52.0634 16.6428 51.9114 16.2108C51.7594 15.7788 51.6834 15.2908 51.6834 14.7468V8.0748H50.5194C50.3434 8.0748 50.1914 8.0188 50.0634 7.9068C49.9434 7.7948 49.8834 7.6268 49.8834 7.4028V6.1068L51.8634 5.7468L52.5354 2.5428C52.6234 2.1828 52.8674 2.0028 53.2674 2.0028H54.9954V5.7708H58.1874V8.0748H54.9954V14.5308C54.9954 14.8748 55.0754 15.1468 55.2354 15.3468C55.4034 15.5468 55.6394 15.6468 55.9434 15.6468C56.1034 15.6468 56.2394 15.6308 56.3514 15.5988C56.4634 15.5588 56.5594 15.5188 56.6394 15.4788C56.7194 15.4308 56.7914 15.3908 56.8554 15.3588C56.9274 15.3188 56.9994 15.2988 57.0714 15.2988C57.1674 15.2988 57.2474 15.3228 57.3114 15.3708C57.3754 15.4108 57.4394 15.4828 57.5034 15.5868L58.4994 17.1708C58.0434 17.5308 57.5274 17.8028 56.9514 17.9868C56.3754 18.1708 55.7794 18.2628 55.1634 18.2628ZM67.6926 10.4268C67.6926 10.0828 67.6446 9.7548 67.5486 9.4428C67.4606 9.1308 67.3166 8.8548 67.1166 8.6148C66.9166 8.3748 66.6646 8.1868 66.3606 8.0508C66.0566 7.9068 65.6926 7.8348 65.2686 7.8348C64.4766 7.8348 63.8566 8.0588 63.4086 8.5068C62.9606 8.9548 62.6686 9.5948 62.5326 10.4268H67.6926ZM62.4846 12.3948C62.5886 13.5548 62.9166 14.4028 63.4686 14.9388C64.0286 15.4748 64.7566 15.7428 65.6526 15.7428C66.1086 15.7428 66.5006 15.6908 66.8286 15.5868C67.1646 15.4748 67.4566 15.3548 67.7046 15.2268C67.9606 15.0908 68.1886 14.9708 68.3886 14.8668C68.5966 14.7548 68.8006 14.6988 69.0006 14.6988C69.2566 14.6988 69.4566 14.7948 69.6006 14.9868L70.5606 16.1868C70.2086 16.5948 69.8206 16.9348 69.3966 17.2068C68.9726 17.4708 68.5326 17.6828 68.0766 17.8428C67.6206 17.9948 67.1606 18.0988 66.6966 18.1548C66.2326 18.2188 65.7846 18.2508 65.3526 18.2508C64.4886 18.2508 63.6806 18.1108 62.9286 17.8308C62.1846 17.5428 61.5326 17.1228 60.9726 16.5708C60.4206 16.0108 59.9846 15.3188 59.6646 14.4948C59.3446 13.6708 59.1846 12.7148 59.1846 11.6268C59.1846 10.7868 59.3206 9.9948 59.5926 9.2508C59.8726 8.5068 60.2726 7.8588 60.7926 7.3068C61.3126 6.7548 61.9446 6.3188 62.6886 5.9988C63.4326 5.6708 64.2726 5.5068 65.2086 5.5068C66.0006 5.5068 66.7286 5.6348 67.3926 5.8908C68.0646 6.1388 68.6406 6.5028 69.1206 6.9828C69.6086 7.4628 69.9846 8.0548 70.2486 8.7588C70.5206 9.4548 70.6566 10.2508 70.6566 11.1468C70.6566 11.3948 70.6446 11.5988 70.6206 11.7588C70.5966 11.9188 70.5566 12.0468 70.5006 12.1428C70.4446 12.2388 70.3686 12.3068 70.2726 12.3468C70.1766 12.3788 70.0526 12.3948 69.9006 12.3948H62.4846ZM87.2348 11.4588L85.3508 6.1308C85.2388 5.8508 85.1188 5.5228 84.9908 5.1468C84.8708 4.7708 84.7548 4.3628 84.6428 3.9228C84.5308 4.3708 84.4108 4.7868 84.2828 5.1708C84.1628 5.5468 84.0468 5.8748 83.9348 6.1548L82.0628 11.4588H87.2348ZM93.2828 18.0708H90.4868C90.1748 18.0708 89.9188 17.9988 89.7188 17.8548C89.5268 17.7028 89.3828 17.5108 89.2868 17.2788L88.1108 13.9548H81.1748L79.9988 17.2788C79.9188 17.4788 79.7788 17.6628 79.5788 17.8308C79.3788 17.9908 79.1268 18.0708 78.8228 18.0708H76.0027L82.8068 0.6588H86.4908L93.2828 18.0708ZM103.086 8.4588C102.99 8.5868 102.894 8.6868 102.798 8.7588C102.702 8.8228 102.566 8.8548 102.39 8.8548C102.23 8.8548 102.074 8.8108 101.922 8.7228C101.778 8.6268 101.61 8.5268 101.418 8.4228C101.226 8.3108 100.998 8.2108 100.734 8.1228C100.47 8.0268 100.142 7.9788 99.7502 7.9788C99.2542 7.9788 98.8222 8.0708 98.4542 8.2548C98.0942 8.4308 97.7942 8.6868 97.5542 9.0228C97.3142 9.3588 97.1342 9.7668 97.0142 10.2468C96.9022 10.7268 96.8462 11.2668 96.8462 11.8668C96.8462 13.1308 97.0982 14.0988 97.6022 14.7708C98.1142 15.4428 98.8102 15.7788 99.6902 15.7788C99.9942 15.7788 100.254 15.7548 100.47 15.7068C100.694 15.6508 100.886 15.5828 101.046 15.5028C101.214 15.4228 101.358 15.3348 101.478 15.2388C101.598 15.1428 101.71 15.0548 101.814 14.9748C101.926 14.8948 102.034 14.8308 102.138 14.7828C102.25 14.7268 102.374 14.6988 102.51 14.6988C102.766 14.6988 102.966 14.7948 103.11 14.9868L104.058 16.1868C103.706 16.5948 103.33 16.9348 102.93 17.2068C102.53 17.4708 102.114 17.6828 101.682 17.8428C101.258 17.9948 100.826 18.0988 100.386 18.1548C99.9462 18.2188 99.5102 18.2508 99.0782 18.2508C98.3182 18.2508 97.5982 18.1108 96.9182 17.8308C96.2382 17.5428 95.6422 17.1268 95.1302 16.5828C94.6182 16.0388 94.2102 15.3708 93.9062 14.5788C93.6102 13.7868 93.4622 12.8828 93.4622 11.8668C93.4622 10.9628 93.5942 10.1228 93.8582 9.3468C94.1222 8.5708 94.5102 7.8988 95.0222 7.3308C95.5342 6.7628 96.1662 6.3188 96.9182 5.9988C97.6782 5.6708 98.5542 5.5068 99.5462 5.5068C100.49 5.5068 101.318 5.6588 102.03 5.9628C102.742 6.2668 103.382 6.7068 103.95 7.2828L103.086 8.4588ZM114.5 8.4588C114.404 8.5868 114.308 8.6868 114.212 8.7588C114.116 8.8228 113.98 8.8548 113.804 8.8548C113.644 8.8548 113.488 8.8108 113.336 8.7228C113.192 8.6268 113.024 8.5268 112.832 8.4228C112.64 8.3108 112.412 8.2108 112.148 8.1228C111.884 8.0268 111.556 7.9788 111.164 7.9788C110.668 7.9788 110.236 8.0708 109.868 8.2548C109.508 8.4308 109.208 8.6868 108.968 9.0228C108.728 9.3588 108.548 9.7668 108.428 10.2468C108.316 10.7268 108.26 11.2668 108.26 11.8668C108.26 13.1308 108.512 14.0988 109.016 14.7708C109.528 15.4428 110.224 15.7788 111.104 15.7788C111.408 15.7788 111.668 15.7548 111.884 15.7068C112.108 15.6508 112.3 15.5828 112.46 15.5028C112.628 15.4228 112.772 15.3348 112.892 15.2388C113.012 15.1428 113.124 15.0548 113.228 14.9748C113.34 14.8948 113.448 14.8308 113.552 14.7828C113.664 14.7268 113.788 14.6988 113.924 14.6988C114.18 14.6988 114.38 14.7948 114.524 14.9868L115.472 16.1868C115.12 16.5948 114.744 16.9348 114.344 17.2068C113.944 17.4708 113.528 17.6828 113.096 17.8428C112.672 17.9948 112.24 18.0988 111.8 18.1548C111.36 18.2188 110.924 18.2508 110.492 18.2508C109.732 18.2508 109.012 18.1108 108.332 17.8308C107.652 17.5428 107.056 17.1268 106.544 16.5828C106.032 16.0388 105.624 15.3708 105.32 14.5788C105.024 13.7868 104.876 12.8828 104.876 11.8668C104.876 10.9628 105.008 10.1228 105.272 9.3468C105.536 8.5708 105.924 7.8988 106.436 7.3308C106.948 6.7628 107.58 6.3188 108.332 5.9988C109.092 5.6708 109.968 5.5068 110.96 5.5068C111.904 5.5068 112.732 5.6588 113.444 5.9628C114.156 6.2668 114.796 6.7068 115.364 7.2828L114.5 8.4588ZM122.518 5.5068C123.446 5.5068 124.29 5.6548 125.05 5.9508C125.81 6.2468 126.462 6.6708 127.006 7.2228C127.55 7.7668 127.97 8.4308 128.266 9.2148C128.562 9.9988 128.71 10.8828 128.71 11.8668C128.71 12.8508 128.562 13.7388 128.266 14.5308C127.97 15.3148 127.55 15.9828 127.006 16.5348C126.462 17.0868 125.81 17.5108 125.05 17.8068C124.29 18.1028 123.446 18.2508 122.518 18.2508C121.582 18.2508 120.73 18.1028 119.962 17.8068C119.202 17.5108 118.55 17.0868 118.006 16.5348C117.462 15.9828 117.038 15.3148 116.734 14.5308C116.438 13.7388 116.29 12.8508 116.29 11.8668C116.29 10.8828 116.438 9.9988 116.734 9.2148C117.038 8.4308 117.462 7.7668 118.006 7.2228C118.55 6.6708 119.202 6.2468 119.962 5.9508C120.73 5.6548 121.582 5.5068 122.518 5.5068ZM122.518 15.7668C123.462 15.7668 124.162 15.4428 124.618 14.7948C125.074 14.1388 125.302 13.1668 125.302 11.8788C125.302 10.5988 125.074 9.6348 124.618 8.9868C124.162 8.3308 123.462 8.0028 122.518 8.0028C121.55 8.0028 120.838 8.3308 120.382 8.9868C119.926 9.6348 119.698 10.5988 119.698 11.8788C119.698 13.1668 119.926 14.1388 120.382 14.7948C120.838 15.4428 121.55 15.7668 122.518 15.7668ZM141.65 5.6988V18.0708H139.61C139.186 18.0708 138.914 17.8788 138.794 17.4948L138.578 16.6308C138.33 16.8708 138.074 17.0908 137.81 17.2908C137.546 17.4908 137.262 17.6628 136.958 17.8068C136.662 17.9508 136.338 18.0628 135.986 18.1428C135.642 18.2228 135.266 18.2628 134.858 18.2628C134.186 18.2628 133.586 18.1468 133.058 17.9148C132.538 17.6828 132.102 17.3588 131.75 16.9428C131.398 16.5268 131.13 16.0308 130.946 15.4548C130.762 14.8788 130.67 14.2468 130.67 13.5588V5.6988H133.982V13.5588C133.982 14.2468 134.138 14.7828 134.45 15.1668C134.77 15.5428 135.242 15.7308 135.866 15.7308C136.33 15.7308 136.766 15.6308 137.174 15.4308C137.582 15.2228 137.97 14.9428 138.338 14.5908V5.6988H141.65ZM147.456 7.1388C147.704 6.8988 147.96 6.6788 148.224 6.4788C148.496 6.2788 148.78 6.1068 149.076 5.9628C149.38 5.8188 149.704 5.7068 150.048 5.6268C150.4 5.5468 150.78 5.5068 151.188 5.5068C151.86 5.5068 152.456 5.6228 152.976 5.8548C153.496 6.0868 153.932 6.4108 154.284 6.8268C154.644 7.2428 154.912 7.7388 155.088 8.3148C155.272 8.8908 155.364 9.5228 155.364 10.2108V18.0708H152.064V10.2108C152.064 9.5228 151.904 8.9908 151.584 8.6148C151.264 8.2308 150.792 8.0388 150.168 8.0388C149.704 8.0388 149.268 8.1388 148.86 8.3388C148.452 8.5388 148.064 8.8188 147.696 9.1788V18.0708H144.384V5.6988H146.424C146.84 5.6988 147.116 5.8908 147.252 6.2748L147.456 7.1388ZM162.109 18.2628C161.549 18.2628 161.053 18.1828 160.621 18.0228C160.189 17.8548 159.825 17.6188 159.529 17.3148C159.233 17.0108 159.009 16.6428 158.857 16.2108C158.705 15.7788 158.629 15.2908 158.629 14.7468V8.0748H157.465C157.289 8.0748 157.137 8.0188 157.009 7.9068C156.889 7.7948 156.829 7.6268 156.829 7.4028V6.1068L158.809 5.7468L159.481 2.5428C159.569 2.1828 159.813 2.0028 160.213 2.0028H161.941V5.7708H165.133V8.0748H161.941V14.5308C161.941 14.8748 162.021 15.1468 162.181 15.3468C162.349 15.5468 162.585 15.6468 162.889 15.6468C163.049 15.6468 163.185 15.6308 163.297 15.5988C163.409 15.5588 163.505 15.5188 163.585 15.4788C163.665 15.4308 163.737 15.3908 163.801 15.3588C163.873 15.3188 163.945 15.2988 164.017 15.2988C164.113 15.2988 164.193 15.3228 164.257 15.3708C164.321 15.4108 164.385 15.4828 164.449 15.5868L165.445 17.1708C164.989 17.5308 164.473 17.8028 163.897 17.9868C163.321 18.1708 162.725 18.2628 162.109 18.2628Z" fill="black"/>
</svg>
