<svg width="20" height="20" viewBox="0 0 20 20" fill="none" xmlns="http://www.w3.org/2000/svg">
<g clip-path="url(#clip0_58_171)">
<path d="M16.875 6.50859V16.25C16.875 16.4158 16.8092 16.5747 16.6919 16.6919C16.5747 16.8092 16.4158 16.875 16.25 16.875H3.75C3.58424 16.875 3.42527 16.8092 3.30806 16.6919C3.19085 16.5747 3.125 16.4158 3.125 16.25V3.75C3.125 3.58424 3.19085 3.42527 3.30806 3.30806C3.42527 3.19085 3.58424 3.125 3.75 3.125H13.4914C13.6569 3.12508 13.8157 3.19082 13.9328 3.30781L16.6922 6.06719C16.8092 6.18431 16.8749 6.34305 16.875 6.50859Z" stroke="black" stroke-width="1.5" stroke-linecap="round" stroke-linejoin="round"/>
<path d="M6.25 16.875V11.875C6.25 11.7092 6.31585 11.5503 6.43306 11.4331C6.55027 11.3158 6.70924 11.25 6.875 11.25H13.125C13.2908 11.25 13.4497 11.3158 13.5669 11.4331C13.6842 11.5503 13.75 11.7092 13.75 11.875V16.875" stroke="black" stroke-width="1.5" stroke-linecap="round" stroke-linejoin="round"/>
<path d="M11.875 5.625H7.5" stroke="black" stroke-width="1.5" stroke-linecap="round" stroke-linejoin="round"/>
</g>
<defs>
<clipPath id="clip0_58_171">
<rect width="20" height="20" fill="white"/>
</clipPath>
</defs>
</svg>
