<svg width="178" height="23" viewBox="0 0 178 23" fill="none" xmlns="http://www.w3.org/2000/svg">
<path d="M3.948 3.4788V8.2908H10.212V11.1228H3.948V18.0708H0.324V0.6588H11.412V3.4788H3.948ZM17.9402 5.5068C18.8682 5.5068 19.7122 5.6548 20.4722 5.9508C21.2322 6.2468 21.8842 6.6708 22.4282 7.2228C22.9722 7.7668 23.3922 8.4308 23.6882 9.2148C23.9842 9.9988 24.1322 10.8828 24.1322 11.8668C24.1322 12.8508 23.9842 13.7388 23.6882 14.5308C23.3922 15.3148 22.9722 15.9828 22.4282 16.5348C21.8842 17.0868 21.2322 17.5108 20.4722 17.8068C19.7122 18.1028 18.8682 18.2508 17.9402 18.2508C17.0042 18.2508 16.1522 18.1028 15.3842 17.8068C14.6242 17.5108 13.9722 17.0868 13.4282 16.5348C12.8842 15.9828 12.4602 15.3148 12.1562 14.5308C11.8602 13.7388 11.7122 12.8508 11.7122 11.8668C11.7122 10.8828 11.8602 9.9988 12.1562 9.2148C12.4602 8.4308 12.8842 7.7668 13.4282 7.2228C13.9722 6.6708 14.6242 6.2468 15.3842 5.9508C16.1522 5.6548 17.0042 5.5068 17.9402 5.5068ZM17.9402 15.7668C18.8842 15.7668 19.5842 15.4428 20.0402 14.7948C20.4962 14.1388 20.7242 13.1668 20.7242 11.8788C20.7242 10.5988 20.4962 9.6348 20.0402 8.9868C19.5842 8.3308 18.8842 8.0028 17.9402 8.0028C16.9722 8.0028 16.2602 8.3308 15.8042 8.9868C15.3482 9.6348 15.1202 10.5988 15.1202 11.8788C15.1202 13.1668 15.3482 14.1388 15.8042 14.7948C16.2602 15.4428 16.9722 15.7668 17.9402 15.7668ZM29.3198 7.7388C29.7118 7.0348 30.1638 6.4788 30.6758 6.0708C31.1878 5.6628 31.7878 5.4588 32.4758 5.4588C33.0358 5.4588 33.4918 5.5908 33.8438 5.8548L33.6278 8.3028C33.5878 8.4628 33.5238 8.5748 33.4358 8.6388C33.3558 8.6948 33.2438 8.7228 33.0998 8.7228C32.9718 8.7228 32.7878 8.7068 32.5478 8.6748C32.3078 8.6348 32.0838 8.6148 31.8758 8.6148C31.5718 8.6148 31.2998 8.6588 31.0598 8.7468C30.8278 8.8348 30.6198 8.9588 30.4358 9.1188C30.2518 9.2788 30.0838 9.4748 29.9318 9.7068C29.7878 9.9388 29.6518 10.2028 29.5238 10.4988V18.0708H26.2118V5.6988H28.1678C28.5038 5.6988 28.7358 5.7588 28.8638 5.8788C28.9918 5.9988 29.0838 6.2068 29.1398 6.5028L29.3198 7.7388ZM39.7963 11.4228C40.4763 11.4228 40.9763 11.2508 41.2963 10.9068C41.6243 10.5628 41.7883 10.1188 41.7883 9.5748C41.7883 9.0068 41.6243 8.5628 41.2963 8.2428C40.9763 7.9148 40.4763 7.7508 39.7963 7.7508C39.1163 7.7508 38.6163 7.9148 38.2963 8.2428C37.9763 8.5628 37.8163 9.0068 37.8163 9.5748C37.8163 10.1108 37.9763 10.5548 38.2963 10.9068C38.6243 11.2508 39.1243 11.4228 39.7963 11.4228ZM42.9283 18.5748C42.9283 18.3588 42.8603 18.1828 42.7243 18.0468C42.5883 17.9108 42.4043 17.8028 42.1723 17.7228C41.9483 17.6428 41.6803 17.5868 41.3683 17.5548C41.0563 17.5148 40.7243 17.4868 40.3723 17.4708C40.0203 17.4468 39.6563 17.4268 39.2803 17.4108C38.9043 17.3948 38.5363 17.3668 38.1763 17.3268C37.8963 17.4948 37.6643 17.6948 37.4803 17.9268C37.3043 18.1508 37.2163 18.4068 37.2163 18.6948C37.2163 18.8948 37.2603 19.0788 37.3483 19.2468C37.4443 19.4148 37.6003 19.5588 37.8163 19.6788C38.0323 19.7988 38.3163 19.8908 38.6683 19.9548C39.0203 20.0268 39.4603 20.0628 39.9883 20.0628C40.5323 20.0628 40.9923 20.0268 41.3683 19.9548C41.7443 19.8828 42.0483 19.7788 42.2803 19.6428C42.5123 19.5148 42.6763 19.3588 42.7723 19.1748C42.8763 18.9908 42.9283 18.7908 42.9283 18.5748ZM46.2163 6.1068V7.3188C46.2163 7.5108 46.1603 7.6628 46.0483 7.7748C45.9443 7.8868 45.7683 7.9708 45.5203 8.0268L44.5123 8.2308C44.6483 8.6228 44.7163 9.0428 44.7163 9.4908C44.7163 10.1068 44.5883 10.6628 44.3323 11.1588C44.0843 11.6468 43.7403 12.0668 43.3003 12.4188C42.8603 12.7628 42.3403 13.0308 41.7403 13.2228C41.1403 13.4068 40.4923 13.4988 39.7963 13.4988C39.3563 13.4988 38.9443 13.4628 38.5603 13.3908C38.2243 13.5988 38.0563 13.8268 38.0563 14.0748C38.0563 14.3068 38.1683 14.4748 38.3923 14.5788C38.6243 14.6828 38.9243 14.7588 39.2923 14.8068C39.6683 14.8468 40.0923 14.8748 40.5643 14.8908C41.0443 14.8988 41.5283 14.9228 42.0163 14.9628C42.5123 15.0028 42.9963 15.0748 43.4683 15.1788C43.9483 15.2748 44.3723 15.4388 44.7403 15.6708C45.1163 15.8948 45.4163 16.1948 45.6403 16.5708C45.8723 16.9468 45.9883 17.4308 45.9883 18.0228C45.9883 18.5748 45.8523 19.1108 45.5803 19.6308C45.3083 20.1508 44.9123 20.6148 44.3923 21.0228C43.8803 21.4308 43.2483 21.7588 42.4963 22.0068C41.7443 22.2548 40.8883 22.3788 39.9283 22.3788C38.9763 22.3788 38.1483 22.2868 37.4443 22.1028C36.7483 21.9268 36.1683 21.6868 35.7043 21.3828C35.2483 21.0868 34.9083 20.7428 34.6843 20.3508C34.4603 19.9588 34.3483 19.5508 34.3483 19.1268C34.3483 18.5748 34.5163 18.1068 34.8523 17.7228C35.1883 17.3388 35.6523 17.0308 36.2443 16.7988C35.9323 16.6228 35.6803 16.3948 35.4883 16.1148C35.3043 15.8268 35.2123 15.4548 35.2123 14.9988C35.2123 14.6308 35.3443 14.2428 35.6083 13.8348C35.8803 13.4268 36.2963 13.0868 36.8563 12.8148C36.2243 12.4788 35.7243 12.0308 35.3563 11.4708C34.9883 10.9028 34.8043 10.2428 34.8043 9.4908C34.8043 8.8748 34.9283 8.3188 35.1763 7.8228C35.4323 7.3268 35.7843 6.9068 36.2323 6.5628C36.6803 6.2108 37.2083 5.9428 37.8163 5.7588C38.4243 5.5748 39.0843 5.4828 39.7963 5.4828C40.8523 5.4828 41.7843 5.6908 42.5923 6.1068H46.2163ZM53.2839 5.5068C54.2119 5.5068 55.0559 5.6548 55.8159 5.9508C56.5759 6.2468 57.2279 6.6708 57.7719 7.2228C58.3159 7.7668 58.7359 8.4308 59.0319 9.2148C59.3279 9.9988 59.4759 10.8828 59.4759 11.8668C59.4759 12.8508 59.3279 13.7388 59.0319 14.5308C58.7359 15.3148 58.3159 15.9828 57.7719 16.5348C57.2279 17.0868 56.5759 17.5108 55.8159 17.8068C55.0559 18.1028 54.2119 18.2508 53.2839 18.2508C52.3479 18.2508 51.4959 18.1028 50.7279 17.8068C49.9679 17.5108 49.3159 17.0868 48.7719 16.5348C48.2279 15.9828 47.8039 15.3148 47.4999 14.5308C47.2039 13.7388 47.0559 12.8508 47.0559 11.8668C47.0559 10.8828 47.2039 9.9988 47.4999 9.2148C47.8039 8.4308 48.2279 7.7668 48.7719 7.2228C49.3159 6.6708 49.9679 6.2468 50.7279 5.9508C51.4959 5.6548 52.3479 5.5068 53.2839 5.5068ZM53.2839 15.7668C54.2279 15.7668 54.9279 15.4428 55.3839 14.7948C55.8399 14.1388 56.0679 13.1668 56.0679 11.8788C56.0679 10.5988 55.8399 9.6348 55.3839 8.9868C54.9279 8.3308 54.2279 8.0028 53.2839 8.0028C52.3159 8.0028 51.6039 8.3308 51.1479 8.9868C50.6919 9.6348 50.4639 10.5988 50.4639 11.8788C50.4639 13.1668 50.6919 14.1388 51.1479 14.7948C51.6039 15.4428 52.3159 15.7668 53.2839 15.7668ZM65.5931 18.2628C65.0331 18.2628 64.5371 18.1828 64.1051 18.0228C63.6731 17.8548 63.3091 17.6188 63.0131 17.3148C62.7171 17.0108 62.4931 16.6428 62.3411 16.2108C62.1891 15.7788 62.1131 15.2908 62.1131 14.7468V8.0748H60.9491C60.7731 8.0748 60.6211 8.0188 60.4931 7.9068C60.3731 7.7948 60.3131 7.6268 60.3131 7.4028V6.1068L62.2931 5.7468L62.9651 2.5428C63.0531 2.1828 63.2971 2.0028 63.6971 2.0028H65.4251V5.7708H68.6171V8.0748H65.4251V14.5308C65.4251 14.8748 65.5051 15.1468 65.6651 15.3468C65.8331 15.5468 66.0691 15.6468 66.3731 15.6468C66.5331 15.6468 66.6691 15.6308 66.7811 15.5988C66.8931 15.5588 66.9891 15.5188 67.0691 15.4788C67.1491 15.4308 67.2211 15.3908 67.2851 15.3588C67.3571 15.3188 67.4291 15.2988 67.5011 15.2988C67.5971 15.2988 67.6771 15.3228 67.7411 15.3708C67.8051 15.4108 67.8691 15.4828 67.9331 15.5868L68.9291 17.1708C68.4731 17.5308 67.9571 17.8028 67.3811 17.9868C66.8051 18.1708 66.2091 18.2628 65.5931 18.2628ZM82.4228 9.3228C83.5508 9.3228 84.3748 9.0508 84.8948 8.5068C85.4228 7.9628 85.6868 7.2188 85.6868 6.2748C85.6868 5.8428 85.6188 5.4508 85.4828 5.0988C85.3548 4.7388 85.1548 4.4348 84.8828 4.1868C84.6188 3.9308 84.2828 3.7348 83.8748 3.5988C83.4668 3.4628 82.9828 3.3948 82.4228 3.3948H80.1428V9.3228H82.4228ZM82.4228 0.6588C83.6148 0.6588 84.6428 0.7988 85.5068 1.0788C86.3788 1.3588 87.0948 1.7508 87.6548 2.2548C88.2148 2.7508 88.6268 3.3428 88.8908 4.0308C89.1628 4.7188 89.2988 5.4668 89.2988 6.2748C89.2988 7.1308 89.1588 7.9148 88.8788 8.6268C88.5988 9.3388 88.1748 9.9508 87.6068 10.4628C87.0388 10.9748 86.3228 11.3748 85.4588 11.6628C84.5948 11.9428 83.5828 12.0828 82.4228 12.0828H80.1428V18.0708H76.5428V0.6588H82.4228ZM97.2501 12.8988C96.4421 12.9388 95.7701 13.0108 95.2341 13.1148C94.6981 13.2108 94.2701 13.3388 93.9501 13.4988C93.6381 13.6588 93.4141 13.8428 93.2781 14.0508C93.1501 14.2508 93.0861 14.4708 93.0861 14.7108C93.0861 15.1908 93.2181 15.5308 93.4821 15.7308C93.7541 15.9308 94.1301 16.0308 94.6101 16.0308C95.1621 16.0308 95.6381 15.9348 96.0381 15.7428C96.4461 15.5428 96.8501 15.2348 97.2501 14.8188V12.8988ZM90.5061 7.4148C91.2341 6.7588 92.0381 6.2708 92.9181 5.9508C93.7981 5.6228 94.7501 5.4588 95.7741 5.4588C96.5101 5.4588 97.1661 5.5788 97.7421 5.8188C98.3261 6.0588 98.8181 6.3948 99.2181 6.8268C99.6261 7.2508 99.9381 7.7588 100.154 8.3508C100.37 8.9428 100.478 9.5908 100.478 10.2948V18.0708H98.9661C98.6541 18.0708 98.4141 18.0268 98.2461 17.9388C98.0861 17.8508 97.9541 17.6668 97.8501 17.3868L97.5861 16.5948C97.2741 16.8668 96.9701 17.1068 96.6741 17.3148C96.3861 17.5228 96.0861 17.6988 95.7741 17.8428C95.4621 17.9788 95.1261 18.0828 94.7661 18.1548C94.4141 18.2268 94.0181 18.2628 93.5781 18.2628C93.0341 18.2628 92.5381 18.1908 92.0901 18.0468C91.6421 17.9028 91.2541 17.6908 90.9261 17.4108C90.6061 17.1228 90.3581 16.7668 90.1821 16.3428C90.0061 15.9188 89.9181 15.4308 89.9181 14.8788C89.9181 14.4228 90.0341 13.9668 90.2661 13.5108C90.4981 13.0548 90.8941 12.6428 91.4541 12.2748C92.0221 11.8988 92.7741 11.5908 93.7101 11.3508C94.6541 11.1028 95.8341 10.9628 97.2501 10.9308V10.2948C97.2501 9.5188 97.0861 8.9508 96.7581 8.5908C96.4301 8.2228 95.9581 8.0388 95.3421 8.0388C94.8861 8.0388 94.5061 8.0948 94.2021 8.2068C93.8981 8.3108 93.6301 8.4268 93.3981 8.5548C93.1741 8.6748 92.9621 8.7908 92.7621 8.9028C92.5621 9.0068 92.3301 9.0588 92.0661 9.0588C91.8341 9.0588 91.6381 9.0028 91.4781 8.8908C91.3261 8.7708 91.1981 8.6308 91.0941 8.4708L90.5061 7.4148ZM110.755 8.2428C110.667 8.3788 110.575 8.4788 110.479 8.5428C110.391 8.5988 110.267 8.6268 110.107 8.6268C109.947 8.6268 109.783 8.5868 109.615 8.5068C109.447 8.4268 109.259 8.3428 109.051 8.2548C108.843 8.1588 108.603 8.0708 108.331 7.9908C108.067 7.9108 107.759 7.8708 107.407 7.8708C106.871 7.8708 106.455 7.9828 106.159 8.2068C105.863 8.4228 105.715 8.7108 105.715 9.0708C105.715 9.3188 105.799 9.5268 105.967 9.6948C106.135 9.8628 106.355 10.0108 106.627 10.1388C106.907 10.2588 107.223 10.3748 107.575 10.4868C107.927 10.5908 108.287 10.7068 108.655 10.8348C109.031 10.9628 109.395 11.1108 109.747 11.2788C110.099 11.4468 110.411 11.6588 110.683 11.9148C110.963 12.1628 111.187 12.4668 111.355 12.8268C111.523 13.1788 111.607 13.6068 111.607 14.1108C111.607 14.7108 111.495 15.2668 111.271 15.7788C111.055 16.2828 110.735 16.7188 110.311 17.0868C109.887 17.4548 109.359 17.7428 108.727 17.9508C108.095 18.1588 107.367 18.2628 106.543 18.2628C106.119 18.2628 105.699 18.2228 105.283 18.1428C104.867 18.0708 104.471 17.9668 104.095 17.8308C103.719 17.6868 103.367 17.5228 103.039 17.3388C102.711 17.1548 102.427 16.9548 102.187 16.7388L102.955 15.5028C103.043 15.3588 103.151 15.2468 103.279 15.1668C103.415 15.0868 103.587 15.0468 103.795 15.0468C103.995 15.0468 104.179 15.0988 104.347 15.2028C104.515 15.2988 104.703 15.4068 104.911 15.5268C105.119 15.6388 105.363 15.7468 105.643 15.8508C105.931 15.9468 106.287 15.9948 106.711 15.9948C107.031 15.9948 107.307 15.9588 107.539 15.8868C107.771 15.8148 107.959 15.7188 108.103 15.5988C108.247 15.4708 108.351 15.3308 108.415 15.1788C108.487 15.0188 108.523 14.8548 108.523 14.6868C108.523 14.4148 108.435 14.1948 108.259 14.0268C108.091 13.8508 107.867 13.6988 107.587 13.5708C107.315 13.4428 106.999 13.3268 106.639 13.2228C106.279 13.1188 105.911 13.0028 105.535 12.8748C105.167 12.7468 104.803 12.5948 104.443 12.4188C104.091 12.2428 103.775 12.0228 103.495 11.7588C103.223 11.4868 102.999 11.1548 102.823 10.7628C102.655 10.3708 102.571 9.8948 102.571 9.3348C102.571 8.8228 102.671 8.3388 102.871 7.8828C103.071 7.4188 103.371 7.0108 103.771 6.6588C104.171 6.3068 104.667 6.0268 105.259 5.8188C105.859 5.6108 106.551 5.5068 107.335 5.5068C108.215 5.5068 109.015 5.6508 109.735 5.9388C110.455 6.2268 111.047 6.6028 111.511 7.0668L110.755 8.2428ZM121.373 8.2428C121.285 8.3788 121.193 8.4788 121.097 8.5428C121.009 8.5988 120.885 8.6268 120.725 8.6268C120.565 8.6268 120.401 8.5868 120.233 8.5068C120.065 8.4268 119.877 8.3428 119.669 8.2548C119.461 8.1588 119.221 8.0708 118.949 7.9908C118.685 7.9108 118.377 7.8708 118.025 7.8708C117.489 7.8708 117.073 7.9828 116.777 8.2068C116.481 8.4228 116.333 8.7108 116.333 9.0708C116.333 9.3188 116.417 9.5268 116.585 9.6948C116.753 9.8628 116.973 10.0108 117.245 10.1388C117.525 10.2588 117.841 10.3748 118.193 10.4868C118.545 10.5908 118.905 10.7068 119.273 10.8348C119.649 10.9628 120.013 11.1108 120.365 11.2788C120.717 11.4468 121.029 11.6588 121.301 11.9148C121.581 12.1628 121.805 12.4668 121.973 12.8268C122.141 13.1788 122.225 13.6068 122.225 14.1108C122.225 14.7108 122.113 15.2668 121.889 15.7788C121.673 16.2828 121.353 16.7188 120.929 17.0868C120.505 17.4548 119.977 17.7428 119.345 17.9508C118.713 18.1588 117.985 18.2628 117.161 18.2628C116.737 18.2628 116.317 18.2228 115.901 18.1428C115.485 18.0708 115.089 17.9668 114.713 17.8308C114.337 17.6868 113.985 17.5228 113.657 17.3388C113.329 17.1548 113.045 16.9548 112.805 16.7388L113.573 15.5028C113.661 15.3588 113.769 15.2468 113.896 15.1668C114.033 15.0868 114.205 15.0468 114.413 15.0468C114.613 15.0468 114.797 15.0988 114.965 15.2028C115.133 15.2988 115.321 15.4068 115.529 15.5268C115.737 15.6388 115.981 15.7468 116.261 15.8508C116.549 15.9468 116.905 15.9948 117.329 15.9948C117.649 15.9948 117.925 15.9588 118.157 15.8868C118.389 15.8148 118.577 15.7188 118.721 15.5988C118.865 15.4708 118.969 15.3308 119.033 15.1788C119.105 15.0188 119.141 14.8548 119.141 14.6868C119.141 14.4148 119.053 14.1948 118.877 14.0268C118.709 13.8508 118.485 13.6988 118.205 13.5708C117.933 13.4428 117.617 13.3268 117.257 13.2228C116.897 13.1188 116.529 13.0028 116.153 12.8748C115.785 12.7468 115.421 12.5948 115.061 12.4188C114.709 12.2428 114.393 12.0228 114.113 11.7588C113.841 11.4868 113.617 11.1548 113.441 10.7628C113.273 10.3708 113.189 9.8948 113.189 9.3348C113.189 8.8228 113.289 8.3388 113.489 7.8828C113.689 7.4188 113.989 7.0108 114.389 6.6588C114.789 6.3068 115.285 6.0268 115.877 5.8188C116.477 5.6108 117.169 5.5068 117.953 5.5068C118.833 5.5068 119.633 5.6508 120.353 5.9388C121.073 6.2268 121.665 6.6028 122.129 7.0668L121.373 8.2428ZM142.214 5.6988L138.326 18.0708H135.65C135.514 18.0708 135.39 18.0268 135.278 17.9388C135.174 17.8508 135.094 17.7028 135.038 17.4948L133.022 10.7988C132.942 10.5428 132.87 10.2908 132.806 10.0428C132.75 9.7868 132.698 9.5308 132.65 9.2748C132.594 9.5308 132.534 9.7908 132.47 10.0548C132.414 10.3108 132.346 10.5668 132.266 10.8228L130.226 17.4948C130.114 17.8788 129.874 18.0708 129.506 18.0708H126.962L123.074 5.6988H125.714C125.954 5.6988 126.154 5.7548 126.314 5.8668C126.482 5.9788 126.594 6.1228 126.65 6.2988L128.174 12.4188C128.27 12.8108 128.354 13.1908 128.426 13.5588C128.498 13.9268 128.566 14.2908 128.63 14.6508C128.726 14.2908 128.826 13.9268 128.93 13.5588C129.042 13.1908 129.158 12.8108 129.278 12.4188L131.09 6.2748C131.146 6.1068 131.254 5.9668 131.414 5.8548C131.574 5.7428 131.762 5.6868 131.978 5.6868H133.442C133.674 5.6868 133.87 5.7428 134.03 5.8548C134.198 5.9668 134.31 6.1068 134.366 6.2748L136.118 12.4188C136.23 12.8028 136.338 13.1828 136.442 13.5588C136.546 13.9268 136.642 14.2988 136.73 14.6748C136.794 14.3068 136.862 13.9388 136.934 13.5708C137.014 13.1948 137.106 12.8108 137.21 12.4188L138.806 6.2988C138.862 6.1228 138.97 5.9788 139.13 5.8668C139.29 5.7548 139.478 5.6988 139.694 5.6988H142.214ZM149.096 5.5068C150.024 5.5068 150.868 5.6548 151.628 5.9508C152.388 6.2468 153.04 6.6708 153.584 7.2228C154.128 7.7668 154.548 8.4308 154.844 9.2148C155.14 9.9988 155.288 10.8828 155.288 11.8668C155.288 12.8508 155.14 13.7388 154.844 14.5308C154.548 15.3148 154.128 15.9828 153.584 16.5348C153.04 17.0868 152.388 17.5108 151.628 17.8068C150.868 18.1028 150.024 18.2508 149.096 18.2508C148.16 18.2508 147.308 18.1028 146.54 17.8068C145.78 17.5108 145.128 17.0868 144.584 16.5348C144.04 15.9828 143.616 15.3148 143.312 14.5308C143.016 13.7388 142.868 12.8508 142.868 11.8668C142.868 10.8828 143.016 9.9988 143.312 9.2148C143.616 8.4308 144.04 7.7668 144.584 7.2228C145.128 6.6708 145.78 6.2468 146.54 5.9508C147.308 5.6548 148.16 5.5068 149.096 5.5068ZM149.096 15.7668C150.04 15.7668 150.74 15.4428 151.196 14.7948C151.652 14.1388 151.88 13.1668 151.88 11.8788C151.88 10.5988 151.652 9.6348 151.196 8.9868C150.74 8.3308 150.04 8.0028 149.096 8.0028C148.128 8.0028 147.416 8.3308 146.96 8.9868C146.504 9.6348 146.276 10.5988 146.276 11.8788C146.276 13.1668 146.504 14.1388 146.96 14.7948C147.416 15.4428 148.128 15.7668 149.096 15.7668ZM160.476 7.7388C160.868 7.0348 161.32 6.4788 161.832 6.0708C162.344 5.6628 162.944 5.4588 163.632 5.4588C164.192 5.4588 164.648 5.5908 165 5.8548L164.784 8.3028C164.744 8.4628 164.68 8.5748 164.592 8.6388C164.512 8.6948 164.4 8.7228 164.256 8.7228C164.128 8.7228 163.944 8.7068 163.704 8.6748C163.464 8.6348 163.24 8.6148 163.032 8.6148C162.728 8.6148 162.456 8.6588 162.216 8.7468C161.984 8.8348 161.776 8.9588 161.592 9.1188C161.408 9.2788 161.24 9.4748 161.088 9.7068C160.944 9.9388 160.808 10.2028 160.68 10.4988V18.0708H157.368V5.6988H159.324C159.66 5.6988 159.892 5.7588 160.02 5.8788C160.148 5.9988 160.24 6.2068 160.296 6.5028L160.476 7.7388ZM173.801 8.9148C173.489 8.5548 173.149 8.3028 172.781 8.1588C172.421 8.0148 172.037 7.9428 171.629 7.9428C171.229 7.9428 170.865 8.0188 170.537 8.1708C170.209 8.3228 169.925 8.5628 169.685 8.8908C169.453 9.2108 169.273 9.6228 169.145 10.1268C169.017 10.6308 168.953 11.2308 168.953 11.9268C168.953 12.6148 169.005 13.1988 169.109 13.6788C169.213 14.1588 169.361 14.5468 169.553 14.8428C169.753 15.1388 169.993 15.3548 170.273 15.4908C170.553 15.6188 170.865 15.6828 171.209 15.6828C171.793 15.6828 172.281 15.5668 172.673 15.3348C173.073 15.1028 173.449 14.7748 173.801 14.3508V8.9148ZM177.113 0.1788V18.0708H175.073C174.649 18.0708 174.377 17.8788 174.257 17.4948L173.981 16.4148C173.733 16.6868 173.469 16.9348 173.189 17.1588C172.917 17.3828 172.621 17.5788 172.301 17.7468C171.981 17.9068 171.637 18.0308 171.269 18.1188C170.901 18.2068 170.501 18.2508 170.069 18.2508C169.405 18.2508 168.797 18.1108 168.245 17.8308C167.693 17.5508 167.213 17.1428 166.805 16.6068C166.405 16.0628 166.093 15.3988 165.869 14.6148C165.645 13.8308 165.533 12.9348 165.533 11.9268C165.533 11.0068 165.657 10.1508 165.905 9.3588C166.161 8.5668 166.521 7.8828 166.985 7.3068C167.449 6.7308 168.009 6.2788 168.665 5.9508C169.321 5.6228 170.049 5.4588 170.849 5.4588C171.521 5.4588 172.085 5.5588 172.541 5.7588C173.005 5.9588 173.425 6.2308 173.801 6.5748V0.1788H177.113Z" fill="black"/>
</svg>
