<svg width="56" height="23" viewBox="0 0 56 23" fill="none" xmlns="http://www.w3.org/2000/svg">
<path d="M10.656 15.072V18H0.324V0.587999H3.924V15.072H10.656ZM17.4714 5.436C18.3994 5.436 19.2434 5.584 20.0034 5.88C20.7634 6.176 21.4154 6.6 21.9594 7.152C22.5034 7.696 22.9234 8.36 23.2194 9.144C23.5154 9.928 23.6634 10.812 23.6634 11.796C23.6634 12.78 23.5154 13.668 23.2194 14.46C22.9234 15.244 22.5034 15.912 21.9594 16.464C21.4154 17.016 20.7634 17.44 20.0034 17.736C19.2434 18.032 18.3994 18.18 17.4714 18.18C16.5354 18.18 15.6834 18.032 14.9154 17.736C14.1554 17.44 13.5034 17.016 12.9594 16.464C12.4154 15.912 11.9914 15.244 11.6874 14.46C11.3914 13.668 11.2434 12.78 11.2434 11.796C11.2434 10.812 11.3914 9.928 11.6874 9.144C11.9914 8.36 12.4154 7.696 12.9594 7.152C13.5034 6.6 14.1554 6.176 14.9154 5.88C15.6834 5.584 16.5354 5.436 17.4714 5.436ZM17.4714 15.696C18.4154 15.696 19.1154 15.372 19.5714 14.724C20.0274 14.068 20.2554 13.096 20.2554 11.808C20.2554 10.528 20.0274 9.564 19.5714 8.916C19.1154 8.26 18.4154 7.932 17.4714 7.932C16.5034 7.932 15.7914 8.26 15.3354 8.916C14.8794 9.564 14.6514 10.528 14.6514 11.808C14.6514 13.096 14.8794 14.068 15.3354 14.724C15.7914 15.372 16.5034 15.696 17.4714 15.696ZM30.2338 11.352C30.9138 11.352 31.4138 11.18 31.7338 10.836C32.0618 10.492 32.2258 10.048 32.2258 9.504C32.2258 8.936 32.0618 8.492 31.7338 8.172C31.4138 7.844 30.9138 7.68 30.2338 7.68C29.5538 7.68 29.0538 7.844 28.7338 8.172C28.4138 8.492 28.2538 8.936 28.2538 9.504C28.2538 10.04 28.4138 10.484 28.7338 10.836C29.0618 11.18 29.5618 11.352 30.2338 11.352ZM33.3658 18.504C33.3658 18.288 33.2978 18.112 33.1618 17.976C33.0258 17.84 32.8418 17.732 32.6098 17.652C32.3858 17.572 32.1178 17.516 31.8058 17.484C31.4938 17.444 31.1618 17.416 30.8098 17.4C30.4578 17.376 30.0938 17.356 29.7178 17.34C29.3418 17.324 28.9738 17.296 28.6138 17.256C28.3338 17.424 28.1018 17.624 27.9178 17.856C27.7418 18.08 27.6538 18.336 27.6538 18.624C27.6538 18.824 27.6978 19.008 27.7858 19.176C27.8818 19.344 28.0378 19.488 28.2538 19.608C28.4698 19.728 28.7538 19.82 29.1058 19.884C29.4578 19.956 29.8978 19.992 30.4258 19.992C30.9698 19.992 31.4298 19.956 31.8058 19.884C32.1818 19.812 32.4858 19.708 32.7178 19.572C32.9498 19.444 33.1138 19.288 33.2098 19.104C33.3138 18.92 33.3658 18.72 33.3658 18.504ZM36.6538 6.036V7.248C36.6538 7.44 36.5978 7.592 36.4858 7.704C36.3818 7.816 36.2058 7.9 35.9578 7.956L34.9498 8.16C35.0858 8.552 35.1538 8.972 35.1538 9.42C35.1538 10.036 35.0258 10.592 34.7698 11.088C34.5218 11.576 34.1778 11.996 33.7378 12.348C33.2978 12.692 32.7778 12.96 32.1778 13.152C31.5778 13.336 30.9298 13.428 30.2338 13.428C29.7938 13.428 29.3818 13.392 28.9978 13.32C28.6618 13.528 28.4938 13.756 28.4938 14.004C28.4938 14.236 28.6058 14.404 28.8298 14.508C29.0618 14.612 29.3618 14.688 29.7298 14.736C30.1058 14.776 30.5298 14.804 31.0018 14.82C31.4818 14.828 31.9658 14.852 32.4538 14.892C32.9498 14.932 33.4338 15.004 33.9058 15.108C34.3858 15.204 34.8098 15.368 35.1778 15.6C35.5538 15.824 35.8538 16.124 36.0778 16.5C36.3098 16.876 36.4258 17.36 36.4258 17.952C36.4258 18.504 36.2898 19.04 36.0178 19.56C35.7458 20.08 35.3498 20.544 34.8298 20.952C34.3178 21.36 33.6858 21.688 32.9338 21.936C32.1818 22.184 31.3258 22.308 30.3658 22.308C29.4138 22.308 28.5858 22.216 27.8818 22.032C27.1858 21.856 26.6058 21.616 26.1418 21.312C25.6858 21.016 25.3458 20.672 25.1218 20.28C24.8978 19.888 24.7858 19.48 24.7858 19.056C24.7858 18.504 24.9538 18.036 25.2898 17.652C25.6258 17.268 26.0898 16.96 26.6818 16.728C26.3698 16.552 26.1178 16.324 25.9258 16.044C25.7418 15.756 25.6498 15.384 25.6498 14.928C25.6498 14.56 25.7818 14.172 26.0458 13.764C26.3178 13.356 26.7338 13.016 27.2938 12.744C26.6618 12.408 26.1618 11.96 25.7938 11.4C25.4258 10.832 25.2418 10.172 25.2418 9.42C25.2418 8.804 25.3658 8.248 25.6138 7.752C25.8698 7.256 26.2218 6.836 26.6698 6.492C27.1178 6.14 27.6458 5.872 28.2538 5.688C28.8618 5.504 29.5218 5.412 30.2338 5.412C31.2898 5.412 32.2218 5.62 33.0298 6.036H36.6538ZM41.7838 5.628V18H38.4718V5.628H41.7838ZM42.1798 2.112C42.1798 2.392 42.1238 2.652 42.0118 2.892C41.8998 3.132 41.7478 3.344 41.5558 3.528C41.3718 3.712 41.1518 3.856 40.8958 3.96C40.6478 4.064 40.3798 4.116 40.0918 4.116C39.8198 4.116 39.5598 4.064 39.3118 3.96C39.0718 3.856 38.8598 3.712 38.6758 3.528C38.4918 3.344 38.3438 3.132 38.2318 2.892C38.1278 2.652 38.0758 2.392 38.0758 2.112C38.0758 1.832 38.1278 1.572 38.2318 1.332C38.3438 1.084 38.4918 0.867999 38.6758 0.683999C38.8598 0.499999 39.0718 0.355999 39.3118 0.251999C39.5598 0.147999 39.8198 0.0959988 40.0918 0.0959988C40.3798 0.0959988 40.6478 0.147999 40.8958 0.251999C41.1518 0.355999 41.3718 0.499999 41.5558 0.683999C41.7478 0.867999 41.8998 1.084 42.0118 1.332C42.1238 1.572 42.1798 1.832 42.1798 2.112ZM47.6822 7.068C47.9302 6.828 48.1862 6.608 48.4502 6.408C48.7222 6.208 49.0062 6.036 49.3022 5.892C49.6062 5.748 49.9302 5.636 50.2742 5.556C50.6262 5.476 51.0062 5.436 51.4142 5.436C52.0862 5.436 52.6822 5.552 53.2022 5.784C53.7222 6.016 54.1582 6.34 54.5102 6.756C54.8702 7.172 55.1382 7.668 55.3142 8.244C55.4982 8.82 55.5902 9.452 55.5902 10.14V18H52.2902V10.14C52.2902 9.452 52.1302 8.92 51.8102 8.544C51.4902 8.16 51.0182 7.968 50.3942 7.968C49.9302 7.968 49.4942 8.068 49.0862 8.268C48.6782 8.468 48.2902 8.748 47.9222 9.108V18H44.6102V5.628H46.6502C47.0662 5.628 47.3422 5.82 47.4782 6.204L47.6822 7.068Z" fill="black"/>
</svg>
