<svg width="145" height="19" viewBox="0 0 145 19" fill="none" xmlns="http://www.w3.org/2000/svg">
<path d="M6.204 9.3228C7.332 9.3228 8.156 9.0508 8.676 8.5068C9.204 7.9628 9.468 7.2188 9.468 6.2748C9.468 5.8428 9.4 5.4508 9.264 5.0988C9.136 4.7388 8.936 4.4348 8.664 4.1868C8.4 3.9308 8.064 3.7348 7.656 3.5988C7.248 3.4628 6.764 3.3948 6.204 3.3948H3.924V9.3228H6.204ZM6.204 0.6588C7.396 0.6588 8.424 0.7988 9.288 1.0788C10.16 1.3588 10.876 1.7508 11.436 2.2548C11.996 2.7508 12.408 3.3428 12.672 4.0308C12.944 4.7188 13.08 5.4668 13.08 6.2748C13.08 7.1308 12.94 7.9148 12.66 8.6268C12.38 9.3388 11.956 9.9508 11.388 10.4628C10.82 10.9748 10.104 11.3748 9.24 11.6628C8.376 11.9428 7.364 12.0828 6.204 12.0828H3.924V18.0708H0.324V0.6588H6.204ZM22.2238 10.4268C22.2238 10.0828 22.1758 9.7548 22.0798 9.4428C21.9918 9.1308 21.8478 8.8548 21.6478 8.6148C21.4478 8.3748 21.1958 8.1868 20.8918 8.0508C20.5878 7.9068 20.2238 7.8348 19.7998 7.8348C19.0078 7.8348 18.3878 8.0588 17.9398 8.5068C17.4918 8.9548 17.1998 9.5948 17.0638 10.4268H22.2238ZM17.0158 12.3948C17.1198 13.5548 17.4478 14.4028 17.9998 14.9388C18.5598 15.4748 19.2878 15.7428 20.1838 15.7428C20.6398 15.7428 21.0318 15.6908 21.3598 15.5868C21.6958 15.4748 21.9878 15.3548 22.2358 15.2268C22.4918 15.0908 22.7198 14.9708 22.9198 14.8668C23.1278 14.7548 23.3318 14.6988 23.5318 14.6988C23.7878 14.6988 23.9878 14.7948 24.1318 14.9868L25.0918 16.1868C24.7398 16.5948 24.3518 16.9348 23.9278 17.2068C23.5038 17.4708 23.0638 17.6828 22.6078 17.8428C22.1518 17.9948 21.6918 18.0988 21.2278 18.1548C20.7638 18.2188 20.3158 18.2508 19.8838 18.2508C19.0198 18.2508 18.2118 18.1108 17.4598 17.8308C16.7158 17.5428 16.0638 17.1228 15.5038 16.5708C14.9518 16.0108 14.5158 15.3188 14.1958 14.4948C13.8758 13.6708 13.7158 12.7148 13.7158 11.6268C13.7158 10.7868 13.8518 9.9948 14.1238 9.2508C14.4038 8.5068 14.8038 7.8588 15.3238 7.3068C15.8438 6.7548 16.4758 6.3188 17.2198 5.9988C17.9638 5.6708 18.8038 5.5068 19.7398 5.5068C20.5318 5.5068 21.2598 5.6348 21.9238 5.8908C22.5958 6.1388 23.1718 6.5028 23.6518 6.9828C24.1398 7.4628 24.5158 8.0548 24.7798 8.7588C25.0518 9.4548 25.1878 10.2508 25.1878 11.1468C25.1878 11.3948 25.1758 11.5988 25.1518 11.7588C25.1278 11.9188 25.0878 12.0468 25.0318 12.1428C24.9758 12.2388 24.8998 12.3068 24.8038 12.3468C24.7078 12.3788 24.5838 12.3948 24.4318 12.3948H17.0158ZM30.351 7.7388C30.743 7.0348 31.195 6.4788 31.707 6.0708C32.219 5.6628 32.819 5.4588 33.507 5.4588C34.067 5.4588 34.523 5.5908 34.875 5.8548L34.659 8.3028C34.619 8.4628 34.555 8.5748 34.467 8.6388C34.387 8.6948 34.275 8.7228 34.131 8.7228C34.003 8.7228 33.819 8.7068 33.579 8.6748C33.339 8.6348 33.115 8.6148 32.907 8.6148C32.603 8.6148 32.331 8.6588 32.091 8.7468C31.859 8.8348 31.651 8.9588 31.467 9.1188C31.283 9.2788 31.115 9.4748 30.963 9.7068C30.819 9.9388 30.683 10.2028 30.555 10.4988V18.0708H27.243V5.6988H29.199C29.535 5.6988 29.767 5.7588 29.895 5.8788C30.023 5.9988 30.115 6.2068 30.171 6.5028L30.351 7.7388ZM43.9584 8.2428C43.8704 8.3788 43.7784 8.4788 43.6824 8.5428C43.5944 8.5988 43.4704 8.6268 43.3104 8.6268C43.1504 8.6268 42.9864 8.5868 42.8184 8.5068C42.6504 8.4268 42.4624 8.3428 42.2544 8.2548C42.0464 8.1588 41.8064 8.0708 41.5344 7.9908C41.2704 7.9108 40.9624 7.8708 40.6104 7.8708C40.0744 7.8708 39.6584 7.9828 39.3624 8.2068C39.0664 8.4228 38.9184 8.7108 38.9184 9.0708C38.9184 9.3188 39.0024 9.5268 39.1704 9.6948C39.3384 9.8628 39.5584 10.0108 39.8304 10.1388C40.1104 10.2588 40.4264 10.3748 40.7784 10.4868C41.1304 10.5908 41.4904 10.7068 41.8584 10.8348C42.2344 10.9628 42.5984 11.1108 42.9504 11.2788C43.3024 11.4468 43.6144 11.6588 43.8864 11.9148C44.1664 12.1628 44.3904 12.4668 44.5584 12.8268C44.7264 13.1788 44.8104 13.6068 44.8104 14.1108C44.8104 14.7108 44.6984 15.2668 44.4744 15.7788C44.2584 16.2828 43.9384 16.7188 43.5144 17.0868C43.0904 17.4548 42.5624 17.7428 41.9304 17.9508C41.2984 18.1588 40.5704 18.2628 39.7464 18.2628C39.3224 18.2628 38.9024 18.2228 38.4864 18.1428C38.0704 18.0708 37.6744 17.9668 37.2984 17.8308C36.9224 17.6868 36.5704 17.5228 36.2424 17.3388C35.9144 17.1548 35.6304 16.9548 35.3904 16.7388L36.1584 15.5028C36.2464 15.3588 36.3544 15.2468 36.4824 15.1668C36.6184 15.0868 36.7904 15.0468 36.9984 15.0468C37.1984 15.0468 37.3824 15.0988 37.5504 15.2028C37.7184 15.2988 37.9064 15.4068 38.1144 15.5268C38.3224 15.6388 38.5664 15.7468 38.8464 15.8508C39.1344 15.9468 39.4904 15.9948 39.9144 15.9948C40.2344 15.9948 40.5104 15.9588 40.7424 15.8868C40.9744 15.8148 41.1624 15.7188 41.3064 15.5988C41.4504 15.4708 41.5544 15.3308 41.6184 15.1788C41.6904 15.0188 41.7264 14.8548 41.7264 14.6868C41.7264 14.4148 41.6384 14.1948 41.4624 14.0268C41.2944 13.8508 41.0704 13.6988 40.7904 13.5708C40.5184 13.4428 40.2024 13.3268 39.8424 13.2228C39.4824 13.1188 39.1144 13.0028 38.7384 12.8748C38.3704 12.7468 38.0064 12.5948 37.6464 12.4188C37.2944 12.2428 36.9784 12.0228 36.6984 11.7588C36.4264 11.4868 36.2024 11.1548 36.0264 10.7628C35.8584 10.3708 35.7744 9.8948 35.7744 9.3348C35.7744 8.8228 35.8744 8.3388 36.0744 7.8828C36.2744 7.4188 36.5744 7.0108 36.9744 6.6588C37.3744 6.3068 37.8704 6.0268 38.4624 5.8188C39.0624 5.6108 39.7544 5.5068 40.5384 5.5068C41.4184 5.5068 42.2184 5.6508 42.9384 5.9388C43.6584 6.2268 44.2504 6.6028 44.7144 7.0668L43.9584 8.2428ZM52.4636 5.5068C53.3916 5.5068 54.2356 5.6548 54.9956 5.9508C55.7556 6.2468 56.4076 6.6708 56.9516 7.2228C57.4956 7.7668 57.9156 8.4308 58.2116 9.2148C58.5076 9.9988 58.6556 10.8828 58.6556 11.8668C58.6556 12.8508 58.5076 13.7388 58.2116 14.5308C57.9156 15.3148 57.4956 15.9828 56.9516 16.5348C56.4076 17.0868 55.7556 17.5108 54.9956 17.8068C54.2356 18.1028 53.3916 18.2508 52.4636 18.2508C51.5276 18.2508 50.6756 18.1028 49.9076 17.8068C49.1476 17.5108 48.4956 17.0868 47.9516 16.5348C47.4076 15.9828 46.9836 15.3148 46.6796 14.5308C46.3836 13.7388 46.2356 12.8508 46.2356 11.8668C46.2356 10.8828 46.3836 9.9988 46.6796 9.2148C46.9836 8.4308 47.4076 7.7668 47.9516 7.2228C48.4956 6.6708 49.1476 6.2468 49.9076 5.9508C50.6756 5.6548 51.5276 5.5068 52.4636 5.5068ZM52.4636 15.7668C53.4076 15.7668 54.1076 15.4428 54.5636 14.7948C55.0196 14.1388 55.2476 13.1668 55.2476 11.8788C55.2476 10.5988 55.0196 9.6348 54.5636 8.9868C54.1076 8.3308 53.4076 8.0028 52.4636 8.0028C51.4956 8.0028 50.7836 8.3308 50.3276 8.9868C49.8716 9.6348 49.6436 10.5988 49.6436 11.8788C49.6436 13.1668 49.8716 14.1388 50.3276 14.7948C50.7836 15.4428 51.4956 15.7668 52.4636 15.7668ZM63.8072 7.1388C64.0552 6.8988 64.3112 6.6788 64.5752 6.4788C64.8472 6.2788 65.1312 6.1068 65.4272 5.9628C65.7312 5.8188 66.0552 5.7068 66.3992 5.6268C66.7512 5.5468 67.1312 5.5068 67.5392 5.5068C68.2112 5.5068 68.8072 5.6228 69.3272 5.8548C69.8472 6.0868 70.2832 6.4108 70.6352 6.8268C70.9952 7.2428 71.2632 7.7388 71.4392 8.3148C71.6232 8.8908 71.7152 9.5228 71.7152 10.2108V18.0708H68.4152V10.2108C68.4152 9.5228 68.2552 8.9908 67.9352 8.6148C67.6152 8.2308 67.1432 8.0388 66.5192 8.0388C66.0552 8.0388 65.6192 8.1388 65.2112 8.3388C64.8032 8.5388 64.4152 8.8188 64.0472 9.1788V18.0708H60.7352V5.6988H62.7752C63.1912 5.6988 63.4672 5.8908 63.6032 6.2748L63.8072 7.1388ZM80.8204 12.8988C80.0124 12.9388 79.3404 13.0108 78.8044 13.1148C78.2684 13.2108 77.8404 13.3388 77.5204 13.4988C77.2084 13.6588 76.9844 13.8428 76.8484 14.0508C76.7204 14.2508 76.6564 14.4708 76.6564 14.7108C76.6564 15.1908 76.7884 15.5308 77.0524 15.7308C77.3244 15.9308 77.7004 16.0308 78.1804 16.0308C78.7324 16.0308 79.2084 15.9348 79.6084 15.7428C80.0164 15.5428 80.4204 15.2348 80.8204 14.8188V12.8988ZM74.0764 7.4148C74.8044 6.7588 75.6084 6.2708 76.4884 5.9508C77.3684 5.6228 78.3204 5.4588 79.3444 5.4588C80.0804 5.4588 80.7364 5.5788 81.3124 5.8188C81.8964 6.0588 82.3884 6.3948 82.7884 6.8268C83.1964 7.2508 83.5084 7.7588 83.7244 8.3508C83.9404 8.9428 84.0484 9.5908 84.0484 10.2948V18.0708H82.5364C82.2244 18.0708 81.9844 18.0268 81.8164 17.9388C81.6564 17.8508 81.5244 17.6668 81.4204 17.3868L81.1564 16.5948C80.8444 16.8668 80.5404 17.1068 80.2444 17.3148C79.9564 17.5228 79.6564 17.6988 79.3444 17.8428C79.0324 17.9788 78.6964 18.0828 78.3364 18.1548C77.9844 18.2268 77.5884 18.2628 77.1484 18.2628C76.6044 18.2628 76.1084 18.1908 75.6604 18.0468C75.2124 17.9028 74.8244 17.6908 74.4964 17.4108C74.1764 17.1228 73.9284 16.7668 73.7524 16.3428C73.5764 15.9188 73.4884 15.4308 73.4884 14.8788C73.4884 14.4228 73.6044 13.9668 73.8364 13.5108C74.0684 13.0548 74.4644 12.6428 75.0244 12.2748C75.5924 11.8988 76.3444 11.5908 77.2804 11.3508C78.2244 11.1028 79.4044 10.9628 80.8204 10.9308V10.2948C80.8204 9.5188 80.6564 8.9508 80.3284 8.5908C80.0004 8.2228 79.5284 8.0388 78.9124 8.0388C78.4564 8.0388 78.0764 8.0948 77.7724 8.2068C77.4684 8.3108 77.2004 8.4268 76.9684 8.5548C76.7444 8.6748 76.5324 8.7908 76.3324 8.9028C76.1324 9.0068 75.9004 9.0588 75.6364 9.0588C75.4044 9.0588 75.2084 9.0028 75.0484 8.8908C74.8964 8.7708 74.7684 8.6308 74.6644 8.4708L74.0764 7.4148ZM89.9696 0.1788V18.0708H86.6576V0.1788H89.9696ZM102.503 18.0708H98.8787V0.6588H102.503V18.0708ZM108.573 7.1388C108.821 6.8988 109.077 6.6788 109.341 6.4788C109.613 6.2788 109.897 6.1068 110.193 5.9628C110.497 5.8188 110.821 5.7068 111.165 5.6268C111.517 5.5468 111.897 5.5068 112.305 5.5068C112.977 5.5068 113.573 5.6228 114.093 5.8548C114.613 6.0868 115.049 6.4108 115.401 6.8268C115.761 7.2428 116.029 7.7388 116.205 8.3148C116.389 8.8908 116.481 9.5228 116.481 10.2108V18.0708H113.181V10.2108C113.181 9.5228 113.021 8.9908 112.701 8.6148C112.381 8.2308 111.909 8.0388 111.285 8.0388C110.821 8.0388 110.385 8.1388 109.977 8.3388C109.569 8.5388 109.181 8.8188 108.813 9.1788V18.0708H105.501V5.6988H107.541C107.957 5.6988 108.233 5.8908 108.369 6.2748L108.573 7.1388ZM119.784 18.0708V8.0748L118.824 7.9068C118.576 7.8588 118.372 7.7708 118.212 7.6428C118.06 7.5148 117.984 7.3308 117.984 7.0908V5.7708H119.784V4.9548C119.784 4.2508 119.892 3.6148 120.108 3.0468C120.332 2.4708 120.648 1.9868 121.056 1.5948C121.464 1.1948 121.964 0.8868 122.556 0.6708C123.148 0.4548 123.816 0.346799 124.56 0.346799C124.848 0.346799 125.12 0.366799 125.376 0.406799C125.64 0.4388 125.904 0.4908 126.168 0.562799L126.096 2.1948C126.08 2.4428 125.972 2.6068 125.772 2.6868C125.58 2.7588 125.364 2.7948 125.124 2.7948C124.788 2.7948 124.484 2.8308 124.212 2.9028C123.948 2.9748 123.724 3.0988 123.54 3.2748C123.356 3.4428 123.216 3.6748 123.12 3.9708C123.024 4.2588 122.976 4.6188 122.976 5.0508V5.7708H126.048V8.0748H123.084V18.0708H119.784ZM132.878 5.5068C133.806 5.5068 134.65 5.6548 135.41 5.9508C136.17 6.2468 136.822 6.6708 137.366 7.2228C137.91 7.7668 138.33 8.4308 138.626 9.2148C138.922 9.9988 139.07 10.8828 139.07 11.8668C139.07 12.8508 138.922 13.7388 138.626 14.5308C138.33 15.3148 137.91 15.9828 137.366 16.5348C136.822 17.0868 136.17 17.5108 135.41 17.8068C134.65 18.1028 133.806 18.2508 132.878 18.2508C131.942 18.2508 131.09 18.1028 130.322 17.8068C129.562 17.5108 128.91 17.0868 128.366 16.5348C127.822 15.9828 127.398 15.3148 127.094 14.5308C126.798 13.7388 126.65 12.8508 126.65 11.8668C126.65 10.8828 126.798 9.9988 127.094 9.2148C127.398 8.4308 127.822 7.7668 128.366 7.2228C128.91 6.6708 129.562 6.2468 130.322 5.9508C131.09 5.6548 131.942 5.5068 132.878 5.5068ZM132.878 15.7668C133.822 15.7668 134.522 15.4428 134.978 14.7948C135.434 14.1388 135.662 13.1668 135.662 11.8788C135.662 10.5988 135.434 9.6348 134.978 8.9868C134.522 8.3308 133.822 8.0028 132.878 8.0028C131.91 8.0028 131.198 8.3308 130.742 8.9868C130.286 9.6348 130.058 10.5988 130.058 11.8788C130.058 13.1668 130.286 14.1388 130.742 14.7948C131.198 15.4428 131.91 15.7668 132.878 15.7668ZM140.681 16.3308C140.681 16.0668 140.729 15.8188 140.825 15.5868C140.929 15.3468 141.069 15.1428 141.245 14.9748C141.421 14.7988 141.625 14.6628 141.857 14.5668C142.097 14.4628 142.357 14.4108 142.637 14.4108C142.909 14.4108 143.165 14.4628 143.405 14.5668C143.645 14.6628 143.853 14.7988 144.029 14.9748C144.205 15.1428 144.341 15.3468 144.437 15.5868C144.541 15.8188 144.593 16.0668 144.593 16.3308C144.593 16.6028 144.541 16.8548 144.437 17.0868C144.341 17.3188 144.205 17.5228 144.029 17.6988C143.853 17.8668 143.645 17.9988 143.405 18.0948C143.165 18.1908 142.909 18.2388 142.637 18.2388C142.357 18.2388 142.097 18.1908 141.857 18.0948C141.625 17.9988 141.421 17.8668 141.245 17.6988C141.069 17.5228 140.929 17.3188 140.825 17.0868C140.729 16.8548 140.681 16.6028 140.681 16.3308Z" fill="black"/>
</svg>
