<svg width="184" height="19" viewBox="0 0 184 19" fill="none" xmlns="http://www.w3.org/2000/svg">
<path d="M6.704 9.3228C7.832 9.3228 8.656 9.0508 9.176 8.5068C9.704 7.9628 9.968 7.2188 9.968 6.2748C9.968 5.8428 9.9 5.4508 9.764 5.0988C9.636 4.7388 9.436 4.4348 9.164 4.1868C8.9 3.9308 8.564 3.7348 8.156 3.5988C7.748 3.4628 7.264 3.3948 6.704 3.3948H4.424V9.3228H6.704ZM6.704 0.6588C7.896 0.6588 8.924 0.7988 9.788 1.0788C10.66 1.3588 11.376 1.7508 11.936 2.2548C12.496 2.7508 12.908 3.3428 13.172 4.0308C13.444 4.7188 13.58 5.4668 13.58 6.2748C13.58 7.1308 13.44 7.9148 13.16 8.6268C12.88 9.3388 12.456 9.9508 11.888 10.4628C11.32 10.9748 10.604 11.3748 9.74 11.6628C8.876 11.9428 7.864 12.0828 6.704 12.0828H4.424V18.0708H0.824V0.6588H6.704ZM18.3588 7.7388C18.7508 7.0348 19.2028 6.4788 19.7148 6.0708C20.2268 5.6628 20.8268 5.4588 21.5148 5.4588C22.0748 5.4588 22.5308 5.5908 22.8828 5.8548L22.6668 8.3028C22.6268 8.4628 22.5628 8.5748 22.4748 8.6388C22.3948 8.6948 22.2828 8.7228 22.1388 8.7228C22.0108 8.7228 21.8268 8.7068 21.5868 8.6748C21.3468 8.6348 21.1228 8.6148 20.9148 8.6148C20.6108 8.6148 20.3388 8.6588 20.0988 8.7468C19.8668 8.8348 19.6588 8.9588 19.4748 9.1188C19.2908 9.2788 19.1228 9.4748 18.9708 9.7068C18.8268 9.9388 18.6908 10.2028 18.5628 10.4988V18.0708H15.2508V5.6988H17.2068C17.5428 5.6988 17.7748 5.7588 17.9028 5.8788C18.0308 5.9988 18.1228 6.2068 18.1788 6.5028L18.3588 7.7388ZM29.5964 5.5068C30.5244 5.5068 31.3684 5.6548 32.1284 5.9508C32.8884 6.2468 33.5404 6.6708 34.0844 7.2228C34.6284 7.7668 35.0484 8.4308 35.3444 9.2148C35.6404 9.9988 35.7884 10.8828 35.7884 11.8668C35.7884 12.8508 35.6404 13.7388 35.3444 14.5308C35.0484 15.3148 34.6284 15.9828 34.0844 16.5348C33.5404 17.0868 32.8884 17.5108 32.1284 17.8068C31.3684 18.1028 30.5244 18.2508 29.5964 18.2508C28.6604 18.2508 27.8084 18.1028 27.0404 17.8068C26.2804 17.5108 25.6284 17.0868 25.0844 16.5348C24.5404 15.9828 24.1164 15.3148 23.8124 14.5308C23.5164 13.7388 23.3684 12.8508 23.3684 11.8668C23.3684 10.8828 23.5164 9.9988 23.8124 9.2148C24.1164 8.4308 24.5404 7.7668 25.0844 7.2228C25.6284 6.6708 26.2804 6.2468 27.0404 5.9508C27.8084 5.6548 28.6604 5.5068 29.5964 5.5068ZM29.5964 15.7668C30.5404 15.7668 31.2404 15.4428 31.6964 14.7948C32.1524 14.1388 32.3804 13.1668 32.3804 11.8788C32.3804 10.5988 32.1524 9.6348 31.6964 8.9868C31.2404 8.3308 30.5404 8.0028 29.5964 8.0028C28.6284 8.0028 27.9164 8.3308 27.4604 8.9868C27.0044 9.6348 26.7764 10.5988 26.7764 11.8788C26.7764 13.1668 27.0044 14.1388 27.4604 14.7948C27.9164 15.4428 28.6284 15.7668 29.5964 15.7668ZM38.4399 18.0708V8.0748L37.4799 7.9068C37.2319 7.8588 37.0279 7.7708 36.8679 7.6428C36.7159 7.5148 36.6399 7.3308 36.6399 7.0908V5.7708H38.4399V4.9548C38.4399 4.2508 38.5479 3.6148 38.7639 3.0468C38.9879 2.4708 39.3039 1.9868 39.7119 1.5948C40.1199 1.1948 40.6199 0.8868 41.2119 0.6708C41.8039 0.4548 42.4719 0.346799 43.2159 0.346799C43.5039 0.346799 43.7759 0.366799 44.0319 0.406799C44.2959 0.4388 44.5599 0.4908 44.8239 0.562799L44.7519 2.1948C44.7359 2.4428 44.6279 2.6068 44.4279 2.6868C44.2359 2.7588 44.0199 2.7948 43.7799 2.7948C43.4439 2.7948 43.1399 2.8308 42.8679 2.9028C42.6039 2.9748 42.3799 3.0988 42.1959 3.2748C42.0119 3.4428 41.8719 3.6748 41.7759 3.9708C41.6799 4.2588 41.6319 4.6188 41.6319 5.0508V5.7708H44.7039V8.0748H41.7399V18.0708H38.4399ZM53.8019 10.4268C53.8019 10.0828 53.7539 9.7548 53.6579 9.4428C53.5699 9.1308 53.4259 8.8548 53.2259 8.6148C53.0259 8.3748 52.7739 8.1868 52.4699 8.0508C52.1659 7.9068 51.8019 7.8348 51.3779 7.8348C50.5859 7.8348 49.9659 8.0588 49.5179 8.5068C49.0699 8.9548 48.7779 9.5948 48.6419 10.4268H53.8019ZM48.5939 12.3948C48.6979 13.5548 49.0259 14.4028 49.5779 14.9388C50.1379 15.4748 50.8659 15.7428 51.7619 15.7428C52.2179 15.7428 52.6099 15.6908 52.9379 15.5868C53.2739 15.4748 53.5659 15.3548 53.8139 15.2268C54.0699 15.0908 54.2979 14.9708 54.4979 14.8668C54.7059 14.7548 54.9099 14.6988 55.1099 14.6988C55.3659 14.6988 55.5659 14.7948 55.7099 14.9868L56.6699 16.1868C56.3179 16.5948 55.9299 16.9348 55.5059 17.2068C55.0819 17.4708 54.6419 17.6828 54.1859 17.8428C53.7299 17.9948 53.2699 18.0988 52.8059 18.1548C52.3419 18.2188 51.8939 18.2508 51.4619 18.2508C50.5979 18.2508 49.7899 18.1108 49.0379 17.8308C48.2939 17.5428 47.6419 17.1228 47.0819 16.5708C46.5299 16.0108 46.0939 15.3188 45.7739 14.4948C45.4539 13.6708 45.2939 12.7148 45.2939 11.6268C45.2939 10.7868 45.4299 9.9948 45.7019 9.2508C45.9819 8.5068 46.3819 7.8588 46.9019 7.3068C47.4219 6.7548 48.0539 6.3188 48.7979 5.9988C49.5419 5.6708 50.3819 5.5068 51.3179 5.5068C52.1099 5.5068 52.8379 5.6348 53.5019 5.8908C54.1739 6.1388 54.7499 6.5028 55.2299 6.9828C55.7179 7.4628 56.0939 8.0548 56.3579 8.7588C56.6299 9.4548 56.7659 10.2508 56.7659 11.1468C56.7659 11.3948 56.7539 11.5988 56.7299 11.7588C56.7059 11.9188 56.6659 12.0468 56.6099 12.1428C56.5539 12.2388 56.4779 12.3068 56.3819 12.3468C56.2859 12.3788 56.1619 12.3948 56.0099 12.3948H48.5939ZM66.5131 8.2428C66.4251 8.3788 66.3331 8.4788 66.2371 8.5428C66.1491 8.5988 66.0251 8.6268 65.8651 8.6268C65.7051 8.6268 65.5411 8.5868 65.3731 8.5068C65.2051 8.4268 65.0171 8.3428 64.8091 8.2548C64.6011 8.1588 64.3611 8.0708 64.0891 7.9908C63.8251 7.9108 63.5171 7.8708 63.1651 7.8708C62.6291 7.8708 62.2131 7.9828 61.9171 8.2068C61.6211 8.4228 61.4731 8.7108 61.4731 9.0708C61.4731 9.3188 61.5571 9.5268 61.7251 9.6948C61.8931 9.8628 62.1131 10.0108 62.3851 10.1388C62.6651 10.2588 62.9811 10.3748 63.3331 10.4868C63.6851 10.5908 64.0451 10.7068 64.4131 10.8348C64.7891 10.9628 65.1531 11.1108 65.5051 11.2788C65.8571 11.4468 66.1691 11.6588 66.4411 11.9148C66.7211 12.1628 66.9451 12.4668 67.1131 12.8268C67.2811 13.1788 67.3651 13.6068 67.3651 14.1108C67.3651 14.7108 67.2531 15.2668 67.0291 15.7788C66.8131 16.2828 66.4931 16.7188 66.0691 17.0868C65.6451 17.4548 65.1171 17.7428 64.4851 17.9508C63.8531 18.1588 63.1251 18.2628 62.3011 18.2628C61.8771 18.2628 61.4571 18.2228 61.0411 18.1428C60.6251 18.0708 60.2291 17.9668 59.8531 17.8308C59.4771 17.6868 59.1251 17.5228 58.7971 17.3388C58.4691 17.1548 58.1851 16.9548 57.9451 16.7388L58.7131 15.5028C58.8011 15.3588 58.9091 15.2468 59.0371 15.1668C59.1731 15.0868 59.3451 15.0468 59.5531 15.0468C59.7531 15.0468 59.9371 15.0988 60.1051 15.2028C60.2731 15.2988 60.4611 15.4068 60.6691 15.5268C60.8771 15.6388 61.1211 15.7468 61.4011 15.8508C61.6891 15.9468 62.0451 15.9948 62.4691 15.9948C62.7891 15.9948 63.0651 15.9588 63.2971 15.8868C63.5291 15.8148 63.7171 15.7188 63.8611 15.5988C64.0051 15.4708 64.1091 15.3308 64.1731 15.1788C64.2451 15.0188 64.2811 14.8548 64.2811 14.6868C64.2811 14.4148 64.1931 14.1948 64.0171 14.0268C63.8491 13.8508 63.6251 13.6988 63.3451 13.5708C63.0731 13.4428 62.7571 13.3268 62.3971 13.2228C62.0371 13.1188 61.6691 13.0028 61.2931 12.8748C60.9251 12.7468 60.5611 12.5948 60.2011 12.4188C59.8491 12.2428 59.5331 12.0228 59.2531 11.7588C58.9811 11.4868 58.7571 11.1548 58.5811 10.7628C58.4131 10.3708 58.3291 9.8948 58.3291 9.3348C58.3291 8.8228 58.4291 8.3388 58.6291 7.8828C58.8291 7.4188 59.1291 7.0108 59.5291 6.6588C59.9291 6.3068 60.4251 6.0268 61.0171 5.8188C61.6171 5.6108 62.3091 5.5068 63.0931 5.5068C63.9731 5.5068 64.7731 5.6508 65.4931 5.9388C66.2131 6.2268 66.8051 6.6028 67.2691 7.0668L66.5131 8.2428ZM77.1303 8.2428C77.0423 8.3788 76.9503 8.4788 76.8543 8.5428C76.7663 8.5988 76.6423 8.6268 76.4823 8.6268C76.3223 8.6268 76.1583 8.5868 75.9903 8.5068C75.8223 8.4268 75.6343 8.3428 75.4263 8.2548C75.2183 8.1588 74.9783 8.0708 74.7063 7.9908C74.4423 7.9108 74.1343 7.8708 73.7823 7.8708C73.2463 7.8708 72.8303 7.9828 72.5343 8.2068C72.2383 8.4228 72.0903 8.7108 72.0903 9.0708C72.0903 9.3188 72.1743 9.5268 72.3423 9.6948C72.5103 9.8628 72.7303 10.0108 73.0023 10.1388C73.2823 10.2588 73.5983 10.3748 73.9503 10.4868C74.3023 10.5908 74.6623 10.7068 75.0303 10.8348C75.4063 10.9628 75.7703 11.1108 76.1223 11.2788C76.4743 11.4468 76.7863 11.6588 77.0583 11.9148C77.3383 12.1628 77.5623 12.4668 77.7303 12.8268C77.8983 13.1788 77.9823 13.6068 77.9823 14.1108C77.9823 14.7108 77.8703 15.2668 77.6463 15.7788C77.4303 16.2828 77.1103 16.7188 76.6863 17.0868C76.2623 17.4548 75.7343 17.7428 75.1023 17.9508C74.4703 18.1588 73.7423 18.2628 72.9183 18.2628C72.4943 18.2628 72.0743 18.2228 71.6583 18.1428C71.2423 18.0708 70.8463 17.9668 70.4703 17.8308C70.0943 17.6868 69.7423 17.5228 69.4143 17.3388C69.0863 17.1548 68.8023 16.9548 68.5623 16.7388L69.3303 15.5028C69.4183 15.3588 69.5263 15.2468 69.6543 15.1668C69.7903 15.0868 69.9623 15.0468 70.1703 15.0468C70.3703 15.0468 70.5543 15.0988 70.7223 15.2028C70.8903 15.2988 71.0783 15.4068 71.2863 15.5268C71.4943 15.6388 71.7383 15.7468 72.0183 15.8508C72.3063 15.9468 72.6623 15.9948 73.0863 15.9948C73.4063 15.9948 73.6823 15.9588 73.9143 15.8868C74.1463 15.8148 74.3343 15.7188 74.4783 15.5988C74.6223 15.4708 74.7263 15.3308 74.7903 15.1788C74.8623 15.0188 74.8983 14.8548 74.8983 14.6868C74.8983 14.4148 74.8103 14.1948 74.6343 14.0268C74.4663 13.8508 74.2423 13.6988 73.9623 13.5708C73.6903 13.4428 73.3743 13.3268 73.0143 13.2228C72.6543 13.1188 72.2863 13.0028 71.9103 12.8748C71.5423 12.7468 71.1783 12.5948 70.8183 12.4188C70.4663 12.2428 70.1503 12.0228 69.8703 11.7588C69.5983 11.4868 69.3743 11.1548 69.1983 10.7628C69.0303 10.3708 68.9463 9.8948 68.9463 9.3348C68.9463 8.8228 69.0463 8.3388 69.2463 7.8828C69.4463 7.4188 69.7463 7.0108 70.1463 6.6588C70.5463 6.3068 71.0423 6.0268 71.6343 5.8188C72.2343 5.6108 72.9263 5.5068 73.7103 5.5068C74.5903 5.5068 75.3903 5.6508 76.1103 5.9388C76.8303 6.2268 77.4223 6.6028 77.8863 7.0668L77.1303 8.2428ZM83.4635 5.6988V18.0708H80.1515V5.6988H83.4635ZM83.8595 2.1828C83.8595 2.4628 83.8035 2.7228 83.6915 2.9628C83.5795 3.2028 83.4275 3.4148 83.2355 3.5988C83.0515 3.7828 82.8315 3.9268 82.5755 4.0308C82.3275 4.1348 82.0595 4.1868 81.7715 4.1868C81.4995 4.1868 81.2395 4.1348 80.9915 4.0308C80.7515 3.9268 80.5395 3.7828 80.3555 3.5988C80.1715 3.4148 80.0235 3.2028 79.9115 2.9628C79.8075 2.7228 79.7555 2.4628 79.7555 2.1828C79.7555 1.9028 79.8075 1.6428 79.9115 1.4028C80.0235 1.1548 80.1715 0.9388 80.3555 0.7548C80.5395 0.5708 80.7515 0.4268 80.9915 0.3228C81.2395 0.2188 81.4995 0.1668 81.7715 0.1668C82.0595 0.1668 82.3275 0.2188 82.5755 0.3228C82.8315 0.4268 83.0515 0.5708 83.2355 0.7548C83.4275 0.9388 83.5795 1.1548 83.6915 1.4028C83.8035 1.6428 83.8595 1.9028 83.8595 2.1828ZM91.8699 5.5068C92.7979 5.5068 93.6419 5.6548 94.4019 5.9508C95.1619 6.2468 95.8139 6.6708 96.3579 7.2228C96.9019 7.7668 97.3219 8.4308 97.6179 9.2148C97.9139 9.9988 98.0619 10.8828 98.0619 11.8668C98.0619 12.8508 97.9139 13.7388 97.6179 14.5308C97.3219 15.3148 96.9019 15.9828 96.3579 16.5348C95.8139 17.0868 95.1619 17.5108 94.4019 17.8068C93.6419 18.1028 92.7979 18.2508 91.8699 18.2508C90.9339 18.2508 90.0819 18.1028 89.3139 17.8068C88.5539 17.5108 87.9019 17.0868 87.3579 16.5348C86.8139 15.9828 86.3899 15.3148 86.0859 14.5308C85.7899 13.7388 85.6419 12.8508 85.6419 11.8668C85.6419 10.8828 85.7899 9.9988 86.0859 9.2148C86.3899 8.4308 86.8139 7.7668 87.3579 7.2228C87.9019 6.6708 88.5539 6.2468 89.3139 5.9508C90.0819 5.6548 90.9339 5.5068 91.8699 5.5068ZM91.8699 15.7668C92.8139 15.7668 93.5139 15.4428 93.9699 14.7948C94.4259 14.1388 94.6539 13.1668 94.6539 11.8788C94.6539 10.5988 94.4259 9.6348 93.9699 8.9868C93.5139 8.3308 92.8139 8.0028 91.8699 8.0028C90.9019 8.0028 90.1899 8.3308 89.7339 8.9868C89.2779 9.6348 89.0499 10.5988 89.0499 11.8788C89.0499 13.1668 89.2779 14.1388 89.7339 14.7948C90.1899 15.4428 90.9019 15.7668 91.8699 15.7668ZM103.213 7.1388C103.461 6.8988 103.717 6.6788 103.981 6.4788C104.253 6.2788 104.537 6.1068 104.833 5.9628C105.137 5.8188 105.461 5.7068 105.805 5.6268C106.157 5.5468 106.537 5.5068 106.945 5.5068C107.617 5.5068 108.213 5.6228 108.733 5.8548C109.253 6.0868 109.689 6.4108 110.041 6.8268C110.401 7.2428 110.669 7.7388 110.845 8.3148C111.029 8.8908 111.121 9.5228 111.121 10.2108V18.0708H107.821V10.2108C107.821 9.5228 107.661 8.9908 107.341 8.6148C107.021 8.2308 106.549 8.0388 105.925 8.0388C105.461 8.0388 105.025 8.1388 104.617 8.3388C104.209 8.5388 103.821 8.8188 103.453 9.1788V18.0708H100.141V5.6988H102.181C102.597 5.6988 102.873 5.8908 103.009 6.2748L103.213 7.1388ZM120.227 12.8988C119.419 12.9388 118.747 13.0108 118.211 13.1148C117.675 13.2108 117.247 13.3388 116.927 13.4988C116.615 13.6588 116.391 13.8428 116.255 14.0508C116.127 14.2508 116.063 14.4708 116.063 14.7108C116.063 15.1908 116.195 15.5308 116.459 15.7308C116.731 15.9308 117.107 16.0308 117.587 16.0308C118.139 16.0308 118.615 15.9348 119.015 15.7428C119.423 15.5428 119.827 15.2348 120.227 14.8188V12.8988ZM113.483 7.4148C114.211 6.7588 115.015 6.2708 115.895 5.9508C116.775 5.6228 117.727 5.4588 118.751 5.4588C119.487 5.4588 120.143 5.5788 120.719 5.8188C121.303 6.0588 121.795 6.3948 122.195 6.8268C122.603 7.2508 122.915 7.7588 123.131 8.3508C123.347 8.9428 123.455 9.5908 123.455 10.2948V18.0708H121.943C121.631 18.0708 121.391 18.0268 121.223 17.9388C121.063 17.8508 120.931 17.6668 120.827 17.3868L120.563 16.5948C120.251 16.8668 119.947 17.1068 119.651 17.3148C119.363 17.5228 119.063 17.6988 118.751 17.8428C118.439 17.9788 118.103 18.0828 117.743 18.1548C117.391 18.2268 116.995 18.2628 116.555 18.2628C116.011 18.2628 115.515 18.1908 115.067 18.0468C114.619 17.9028 114.231 17.6908 113.903 17.4108C113.583 17.1228 113.335 16.7668 113.159 16.3428C112.983 15.9188 112.895 15.4308 112.895 14.8788C112.895 14.4228 113.011 13.9668 113.243 13.5108C113.475 13.0548 113.871 12.6428 114.431 12.2748C114.999 11.8988 115.751 11.5908 116.687 11.3508C117.631 11.1028 118.811 10.9628 120.227 10.9308V10.2948C120.227 9.5188 120.063 8.9508 119.735 8.5908C119.407 8.2228 118.935 8.0388 118.319 8.0388C117.863 8.0388 117.483 8.0948 117.179 8.2068C116.875 8.3108 116.607 8.4268 116.375 8.5548C116.151 8.6748 115.939 8.7908 115.739 8.9028C115.539 9.0068 115.307 9.0588 115.043 9.0588C114.811 9.0588 114.615 9.0028 114.455 8.8908C114.303 8.7708 114.175 8.6308 114.071 8.4708L113.483 7.4148ZM129.376 0.1788V18.0708H126.064V0.1788H129.376ZM141.909 18.0708H138.285V0.6588H141.909V18.0708ZM147.979 7.1388C148.227 6.8988 148.483 6.6788 148.747 6.4788C149.019 6.2788 149.303 6.1068 149.599 5.9628C149.903 5.8188 150.227 5.7068 150.571 5.6268C150.923 5.5468 151.303 5.5068 151.711 5.5068C152.383 5.5068 152.979 5.6228 153.499 5.8548C154.019 6.0868 154.455 6.4108 154.807 6.8268C155.167 7.2428 155.435 7.7388 155.611 8.3148C155.795 8.8908 155.887 9.5228 155.887 10.2108V18.0708H152.587V10.2108C152.587 9.5228 152.427 8.9908 152.107 8.6148C151.787 8.2308 151.315 8.0388 150.691 8.0388C150.227 8.0388 149.791 8.1388 149.383 8.3388C148.975 8.5388 148.587 8.8188 148.219 9.1788V18.0708H144.907V5.6988H146.947C147.363 5.6988 147.639 5.8908 147.775 6.2748L147.979 7.1388ZM159.19 18.0708V8.0748L158.23 7.9068C157.982 7.8588 157.778 7.7708 157.618 7.6428C157.466 7.5148 157.39 7.3308 157.39 7.0908V5.7708H159.19V4.9548C159.19 4.2508 159.298 3.6148 159.514 3.0468C159.738 2.4708 160.054 1.9868 160.462 1.5948C160.87 1.1948 161.37 0.8868 161.962 0.6708C162.554 0.4548 163.222 0.346799 163.966 0.346799C164.254 0.346799 164.526 0.366799 164.782 0.406799C165.046 0.4388 165.31 0.4908 165.574 0.562799L165.502 2.1948C165.486 2.4428 165.378 2.6068 165.178 2.6868C164.986 2.7588 164.77 2.7948 164.53 2.7948C164.194 2.7948 163.89 2.8308 163.618 2.9028C163.354 2.9748 163.13 3.0988 162.946 3.2748C162.762 3.4428 162.622 3.6748 162.526 3.9708C162.43 4.2588 162.382 4.6188 162.382 5.0508V5.7708H165.454V8.0748H162.49V18.0708H159.19ZM172.284 5.5068C173.212 5.5068 174.056 5.6548 174.816 5.9508C175.576 6.2468 176.228 6.6708 176.772 7.2228C177.316 7.7668 177.736 8.4308 178.032 9.2148C178.328 9.9988 178.476 10.8828 178.476 11.8668C178.476 12.8508 178.328 13.7388 178.032 14.5308C177.736 15.3148 177.316 15.9828 176.772 16.5348C176.228 17.0868 175.576 17.5108 174.816 17.8068C174.056 18.1028 173.212 18.2508 172.284 18.2508C171.348 18.2508 170.496 18.1028 169.728 17.8068C168.968 17.5108 168.316 17.0868 167.772 16.5348C167.228 15.9828 166.804 15.3148 166.5 14.5308C166.204 13.7388 166.056 12.8508 166.056 11.8668C166.056 10.8828 166.204 9.9988 166.5 9.2148C166.804 8.4308 167.228 7.7668 167.772 7.2228C168.316 6.6708 168.968 6.2468 169.728 5.9508C170.496 5.6548 171.348 5.5068 172.284 5.5068ZM172.284 15.7668C173.228 15.7668 173.928 15.4428 174.384 14.7948C174.84 14.1388 175.068 13.1668 175.068 11.8788C175.068 10.5988 174.84 9.6348 174.384 8.9868C173.928 8.3308 173.228 8.0028 172.284 8.0028C171.316 8.0028 170.604 8.3308 170.148 8.9868C169.692 9.6348 169.464 10.5988 169.464 11.8788C169.464 13.1668 169.692 14.1388 170.148 14.7948C170.604 15.4428 171.316 15.7668 172.284 15.7668ZM180.088 16.3308C180.088 16.0668 180.136 15.8188 180.232 15.5868C180.336 15.3468 180.476 15.1428 180.652 14.9748C180.828 14.7988 181.032 14.6628 181.264 14.5668C181.504 14.4628 181.764 14.4108 182.044 14.4108C182.316 14.4108 182.572 14.4628 182.812 14.5668C183.052 14.6628 183.26 14.7988 183.436 14.9748C183.612 15.1428 183.748 15.3468 183.844 15.5868C183.948 15.8188 184 16.0668 184 16.3308C184 16.6028 183.948 16.8548 183.844 17.0868C183.748 17.3188 183.612 17.5228 183.436 17.6988C183.26 17.8668 183.052 17.9988 182.812 18.0948C182.572 18.1908 182.316 18.2388 182.044 18.2388C181.764 18.2388 181.504 18.1908 181.264 18.0948C181.032 17.9988 180.828 17.8668 180.652 17.6988C180.476 17.5228 180.336 17.3188 180.232 17.0868C180.136 16.8548 180.088 16.6028 180.088 16.3308Z" fill="black"/>
</svg>
