<svg width="42" height="47" viewBox="0 0 42 47" fill="none" xmlns="http://www.w3.org/2000/svg">
<rect x="42" y="0.5" width="46" height="42" rx="8" transform="rotate(90 42 0.5)" fill="white"/>
<rect x="41.5" y="1" width="45" height="41" rx="7.5" transform="rotate(90 41.5 1)" stroke="black" stroke-opacity="0.2"/>
<g clip-path="url(#clip0_127_4239)">
<g clip-path="url(#clip1_127_4239)">
<path d="M29.583 16.25H13.083" stroke="black" stroke-width="2" stroke-linecap="round" stroke-linejoin="round"/>
<path d="M19.083 20.75V26.75" stroke="black" stroke-width="2" stroke-linecap="round" stroke-linejoin="round"/>
<path d="M23.583 20.75V26.75" stroke="black" stroke-width="2" stroke-linecap="round" stroke-linejoin="round"/>
<path d="M28.083 16.25V30.5C28.083 30.6989 28.004 30.8897 27.8633 31.0303C27.7227 31.171 27.5319 31.25 27.333 31.25H15.333C15.1341 31.25 14.9433 31.171 14.8027 31.0303C14.662 30.8897 14.583 30.6989 14.583 30.5V16.25" stroke="black" stroke-width="2" stroke-linecap="round" stroke-linejoin="round"/>
<path d="M25.083 16.25V14.75C25.083 14.3522 24.925 13.9706 24.6437 13.6893C24.3624 13.408 23.9808 13.25 23.583 13.25H19.083C18.6852 13.25 18.3037 13.408 18.0223 13.6893C17.741 13.9706 17.583 14.3522 17.583 14.75V16.25" stroke="black" stroke-width="2" stroke-linecap="round" stroke-linejoin="round"/>
</g>
</g>
<defs>
<clipPath id="clip0_127_4239">
<rect width="18" height="18" fill="white" transform="translate(30 14.5) rotate(90)"/>
</clipPath>
<clipPath id="clip1_127_4239">
<rect width="24" height="24" fill="white" transform="translate(9.33301 11)"/>
</clipPath>
</defs>
</svg>
