<svg width="214" height="23" viewBox="0 0 214 23" fill="none" xmlns="http://www.w3.org/2000/svg">
<path d="M17.564 0.6588L10.556 18.0708H7.292L0.284 0.6588H3.188C3.5 0.6588 3.752 0.7348 3.944 0.8868C4.144 1.0308 4.292 1.2188 4.388 1.4508L8.156 11.4828C8.3 11.8588 8.44 12.2708 8.576 12.7188C8.72 13.1588 8.852 13.6228 8.972 14.1108C9.076 13.6228 9.188 13.1588 9.308 12.7188C9.436 12.2708 9.572 11.8588 9.716 11.4828L13.46 1.4508C13.54 1.2508 13.68 1.0708 13.88 0.9108C14.088 0.7428 14.344 0.6588 14.648 0.6588H17.564ZM24.6223 10.4268C24.6223 10.0828 24.5743 9.7548 24.4783 9.4428C24.3903 9.1308 24.2463 8.8548 24.0463 8.6148C23.8463 8.3748 23.5943 8.1868 23.2903 8.0508C22.9863 7.9068 22.6223 7.8348 22.1983 7.8348C21.4063 7.8348 20.7863 8.0588 20.3383 8.5068C19.8903 8.9548 19.5983 9.5948 19.4623 10.4268H24.6223ZM19.4143 12.3948C19.5183 13.5548 19.8463 14.4028 20.3983 14.9388C20.9583 15.4748 21.6863 15.7428 22.5823 15.7428C23.0383 15.7428 23.4303 15.6908 23.7583 15.5868C24.0943 15.4748 24.3863 15.3548 24.6343 15.2268C24.8903 15.0908 25.1183 14.9708 25.3183 14.8668C25.5263 14.7548 25.7303 14.6988 25.9303 14.6988C26.1863 14.6988 26.3863 14.7948 26.5303 14.9868L27.4903 16.1868C27.1383 16.5948 26.7503 16.9348 26.3263 17.2068C25.9023 17.4708 25.4623 17.6828 25.0063 17.8428C24.5503 17.9948 24.0903 18.0988 23.6263 18.1548C23.1623 18.2188 22.7143 18.2508 22.2823 18.2508C21.4183 18.2508 20.6103 18.1108 19.8583 17.8308C19.1143 17.5428 18.4623 17.1228 17.9023 16.5708C17.3503 16.0108 16.9143 15.3188 16.5943 14.4948C16.2743 13.6708 16.1143 12.7148 16.1143 11.6268C16.1143 10.7868 16.2503 9.9948 16.5223 9.2508C16.8023 8.5068 17.2023 7.8588 17.7223 7.3068C18.2423 6.7548 18.8743 6.3188 19.6183 5.9988C20.3623 5.6708 21.2023 5.5068 22.1383 5.5068C22.9303 5.5068 23.6583 5.6348 24.3223 5.8908C24.9943 6.1388 25.5703 6.5028 26.0503 6.9828C26.5383 7.4628 26.9143 8.0548 27.1783 8.7588C27.4503 9.4548 27.5863 10.2508 27.5863 11.1468C27.5863 11.3948 27.5743 11.5988 27.5503 11.7588C27.5263 11.9188 27.4863 12.0468 27.4303 12.1428C27.3743 12.2388 27.2983 12.3068 27.2023 12.3468C27.1063 12.3788 26.9823 12.3948 26.8303 12.3948H19.4143ZM32.7494 7.7388C33.1414 7.0348 33.5934 6.4788 34.1054 6.0708C34.6174 5.6628 35.2174 5.4588 35.9054 5.4588C36.4654 5.4588 36.9214 5.5908 37.2734 5.8548L37.0574 8.3028C37.0174 8.4628 36.9534 8.5748 36.8654 8.6388C36.7854 8.6948 36.6734 8.7228 36.5294 8.7228C36.4014 8.7228 36.2174 8.7068 35.9774 8.6748C35.7374 8.6348 35.5134 8.6148 35.3054 8.6148C35.0014 8.6148 34.7294 8.6588 34.4894 8.7468C34.2574 8.8348 34.0494 8.9588 33.8654 9.1188C33.6814 9.2788 33.5134 9.4748 33.3614 9.7068C33.2174 9.9388 33.0814 10.2028 32.9534 10.4988V18.0708H29.6414V5.6988H31.5974C31.9334 5.6988 32.1654 5.7588 32.2934 5.8788C32.4214 5.9988 32.5134 6.2068 32.5694 6.5028L32.7494 7.7388ZM42.0963 5.6988V18.0708H38.7843V5.6988H42.0963ZM42.4923 2.1828C42.4923 2.4628 42.4363 2.7228 42.3243 2.9628C42.2123 3.2028 42.0603 3.4148 41.8683 3.5988C41.6843 3.7828 41.4643 3.9268 41.2083 4.0308C40.9603 4.1348 40.6923 4.1868 40.4043 4.1868C40.1323 4.1868 39.8723 4.1348 39.6243 4.0308C39.3843 3.9268 39.1723 3.7828 38.9883 3.5988C38.8043 3.4148 38.6563 3.2028 38.5443 2.9628C38.4403 2.7228 38.3883 2.4628 38.3883 2.1828C38.3883 1.9028 38.4403 1.6428 38.5443 1.4028C38.6563 1.1548 38.8043 0.9388 38.9883 0.7548C39.1723 0.5708 39.3843 0.4268 39.6243 0.3228C39.8723 0.2188 40.1323 0.1668 40.4043 0.1668C40.6923 0.1668 40.9603 0.2188 41.2083 0.3228C41.4643 0.4268 41.6843 0.5708 41.8683 0.7548C42.0603 0.9388 42.2123 1.1548 42.3243 1.4028C42.4363 1.6428 42.4923 1.9028 42.4923 2.1828ZM45.8227 18.0708V8.0748L44.8627 7.9068C44.6147 7.8588 44.4107 7.7708 44.2507 7.6428C44.0987 7.5148 44.0227 7.3308 44.0227 7.0908V5.7708H45.8227V4.9548C45.8227 4.2508 45.9307 3.6148 46.1467 3.0468C46.3707 2.4708 46.6867 1.9868 47.0947 1.5948C47.5027 1.1948 48.0027 0.8868 48.5947 0.6708C49.1867 0.4548 49.8547 0.346799 50.5987 0.346799C50.8867 0.346799 51.1587 0.366799 51.4147 0.406799C51.6787 0.4388 51.9427 0.4908 52.2067 0.562799L52.1347 2.1948C52.1187 2.4428 52.0107 2.6068 51.8107 2.6868C51.6187 2.7588 51.4027 2.7948 51.1627 2.7948C50.8267 2.7948 50.5227 2.8308 50.2507 2.9028C49.9867 2.9748 49.7627 3.0988 49.5787 3.2748C49.3947 3.4428 49.2547 3.6748 49.1587 3.9708C49.0627 4.2588 49.0147 4.6188 49.0147 5.0508V5.7708H52.0867V8.0748H49.1227V18.0708H45.8227ZM65.09 5.6988L58.418 21.3948C58.314 21.6188 58.186 21.7868 58.034 21.8988C57.89 22.0108 57.658 22.0668 57.338 22.0668H54.878L57.218 17.0748L52.25 5.6988H55.154C55.418 5.6988 55.622 5.7588 55.766 5.8788C55.91 5.9988 56.014 6.1388 56.078 6.2988L58.43 12.2148C58.518 12.4468 58.594 12.6828 58.658 12.9228C58.73 13.1548 58.798 13.3868 58.862 13.6188C59.006 13.1468 59.17 12.6748 59.354 12.2028L61.538 6.2988C61.602 6.1228 61.718 5.9788 61.886 5.8668C62.054 5.7548 62.238 5.6988 62.438 5.6988H65.09ZM86.2593 0.6588L79.2513 18.0708H75.9873L68.9793 0.6588H71.8833C72.1953 0.6588 72.4473 0.7348 72.6393 0.8868C72.8393 1.0308 72.9873 1.2188 73.0833 1.4508L76.8513 11.4828C76.9953 11.8588 77.1353 12.2708 77.2713 12.7188C77.4153 13.1588 77.5473 13.6228 77.6673 14.1108C77.7713 13.6228 77.8833 13.1588 78.0033 12.7188C78.1313 12.2708 78.2673 11.8588 78.4113 11.4828L82.1553 1.4508C82.2353 1.2508 82.3753 1.0708 82.5753 0.9108C82.7833 0.7428 83.0393 0.6588 83.3433 0.6588H86.2593ZM99.1175 13.7868C99.3175 13.7868 99.4855 13.8588 99.6215 14.0028L101.05 15.5268C100.346 16.4228 99.4695 17.1028 98.4215 17.5668C97.3815 18.0308 96.1415 18.2628 94.7015 18.2628C93.3975 18.2628 92.2255 18.0428 91.1855 17.6028C90.1455 17.1548 89.2615 16.5348 88.5335 15.7428C87.8055 14.9508 87.2455 14.0108 86.8535 12.9228C86.4615 11.8348 86.2655 10.6468 86.2655 9.3588C86.2655 8.4948 86.3575 7.6748 86.5415 6.8988C86.7335 6.1148 87.0095 5.3948 87.3695 4.7388C87.7295 4.0828 88.1615 3.4908 88.6655 2.9628C89.1775 2.4348 89.7535 1.9868 90.3935 1.6188C91.0335 1.2428 91.7295 0.9588 92.4815 0.7668C93.2415 0.5668 94.0495 0.466799 94.9055 0.466799C95.5455 0.466799 96.1495 0.522799 96.7175 0.6348C97.2935 0.7468 97.8295 0.902801 98.3255 1.1028C98.8215 1.3028 99.2775 1.5468 99.6935 1.8348C100.118 2.1148 100.498 2.4228 100.834 2.7588L99.6215 4.4148C99.5495 4.5188 99.4575 4.6108 99.3455 4.6908C99.2335 4.7708 99.0815 4.8108 98.8895 4.8108C98.6975 4.8108 98.5015 4.7428 98.3015 4.6068C98.1095 4.4708 97.8695 4.3188 97.5815 4.1508C97.3015 3.9828 96.9455 3.8308 96.5135 3.6948C96.0895 3.5588 95.5495 3.4908 94.8935 3.4908C94.1655 3.4908 93.4975 3.6228 92.8895 3.8868C92.2815 4.1508 91.7575 4.5348 91.3175 5.0388C90.8855 5.5348 90.5495 6.1468 90.3095 6.8748C90.0695 7.6028 89.9495 8.4308 89.9495 9.3588C89.9495 10.2948 90.0775 11.1308 90.3335 11.8668C90.5975 12.5948 90.9535 13.2108 91.4015 13.7148C91.8575 14.2188 92.3855 14.6028 92.9855 14.8668C93.5935 15.1228 94.2415 15.2508 94.9295 15.2508C95.3375 15.2508 95.7055 15.2308 96.0335 15.1908C96.3695 15.1508 96.6775 15.0828 96.9575 14.9868C97.2455 14.8908 97.5135 14.7668 97.7615 14.6148C98.0175 14.4628 98.2735 14.2708 98.5295 14.0388C98.6175 13.9668 98.7095 13.9068 98.8055 13.8588C98.9015 13.8108 99.0055 13.7868 99.1175 13.7868ZM117.998 0.6588V18.0708H116.138C115.858 18.0708 115.622 18.0268 115.43 17.9388C115.238 17.8428 115.05 17.6828 114.866 17.4588L106.19 6.4188C106.214 6.6988 106.23 6.9748 106.238 7.2468C106.254 7.5188 106.262 7.7708 106.262 8.0028V18.0708H103.082V0.6588H104.978C105.13 0.6588 105.258 0.6668 105.362 0.682799C105.474 0.6908 105.574 0.7188 105.662 0.7668C105.75 0.8068 105.834 0.8628 105.914 0.9348C105.994 1.0068 106.082 1.1028 106.178 1.2228L114.914 12.3108C114.882 12.0068 114.858 11.7148 114.842 11.4348C114.826 11.1468 114.818 10.8748 114.818 10.6188V0.6588H117.998ZM142.256 0.6588V18.0708H140.396C140.116 18.0708 139.88 18.0268 139.688 17.9388C139.496 17.8428 139.308 17.6828 139.124 17.4588L130.448 6.4188C130.472 6.6988 130.488 6.9748 130.496 7.2468C130.512 7.5188 130.52 7.7708 130.52 8.0028V18.0708H127.34V0.6588H129.236C129.388 0.6588 129.516 0.6668 129.62 0.682799C129.732 0.6908 129.832 0.7188 129.92 0.7668C130.008 0.8068 130.092 0.8628 130.172 0.9348C130.252 1.0068 130.34 1.1028 130.436 1.2228L139.172 12.3108C139.14 12.0068 139.116 11.7148 139.1 11.4348C139.084 11.1468 139.076 10.8748 139.076 10.6188V0.6588H142.256ZM156.072 5.6988V18.0708H154.032C153.608 18.0708 153.336 17.8788 153.216 17.4948L153 16.6308C152.752 16.8708 152.496 17.0908 152.232 17.2908C151.968 17.4908 151.684 17.6628 151.38 17.8068C151.084 17.9508 150.76 18.0628 150.408 18.1428C150.064 18.2228 149.688 18.2628 149.28 18.2628C148.608 18.2628 148.008 18.1468 147.48 17.9148C146.96 17.6828 146.524 17.3588 146.172 16.9428C145.82 16.5268 145.552 16.0308 145.368 15.4548C145.184 14.8788 145.092 14.2468 145.092 13.5588V5.6988H148.404V13.5588C148.404 14.2468 148.56 14.7828 148.872 15.1668C149.192 15.5428 149.664 15.7308 150.288 15.7308C150.752 15.7308 151.188 15.6308 151.596 15.4308C152.004 15.2228 152.392 14.9428 152.76 14.5908V5.6988H156.072ZM158.806 18.0708V5.6988H160.846C161.262 5.6988 161.538 5.8908 161.674 6.2748L161.866 7.0788C162.082 6.8548 162.302 6.6468 162.526 6.4548C162.758 6.2628 163.006 6.0988 163.27 5.9628C163.534 5.8188 163.818 5.7068 164.122 5.6268C164.434 5.5468 164.77 5.5068 165.13 5.5068C165.89 5.5068 166.518 5.7108 167.014 6.1188C167.51 6.5188 167.886 7.0548 168.142 7.7268C168.342 7.3348 168.586 6.9988 168.874 6.7188C169.17 6.4308 169.49 6.1988 169.833 6.0228C170.186 5.8468 170.554 5.7188 170.938 5.6388C171.33 5.5508 171.722 5.5068 172.114 5.5068C172.81 5.5068 173.426 5.6108 173.962 5.8188C174.498 6.0268 174.946 6.3348 175.306 6.7428C175.674 7.1428 175.954 7.6348 176.146 8.2188C176.338 8.8028 176.434 9.4668 176.434 10.2108V18.0708H173.122V10.2108C173.122 8.7628 172.502 8.0388 171.262 8.0388C170.982 8.0388 170.722 8.0868 170.482 8.1828C170.25 8.2708 170.042 8.4068 169.858 8.5908C169.682 8.7748 169.542 9.0028 169.438 9.2748C169.342 9.5468 169.294 9.8588 169.294 10.2108V18.0708H165.982V10.2108C165.982 9.4268 165.826 8.8708 165.514 8.5428C165.21 8.2068 164.758 8.0388 164.158 8.0388C163.774 8.0388 163.41 8.1308 163.066 8.3148C162.73 8.4908 162.414 8.7388 162.118 9.0588V18.0708H158.806ZM182.368 14.8068C182.68 15.1668 183.016 15.4188 183.376 15.5628C183.744 15.7068 184.124 15.7788 184.516 15.7788C184.924 15.7788 185.292 15.7068 185.62 15.5628C185.956 15.4108 186.244 15.1748 186.484 14.8548C186.724 14.5268 186.908 14.1028 187.036 13.5828C187.164 13.0628 187.228 12.4348 187.228 11.6988C187.228 11.0428 187.176 10.4868 187.072 10.0308C186.968 9.5668 186.812 9.1868 186.604 8.8908C186.404 8.5948 186.156 8.3788 185.86 8.2428C185.564 8.1068 185.22 8.0388 184.828 8.0388C184.308 8.0388 183.856 8.1548 183.472 8.3868C183.096 8.6108 182.728 8.9428 182.368 9.3828V14.8068ZM182.368 7.1268C182.856 6.6388 183.396 6.2468 183.988 5.9508C184.58 5.6548 185.244 5.5068 185.98 5.5068C186.692 5.5068 187.332 5.6508 187.9 5.9388C188.476 6.2188 188.964 6.6228 189.364 7.1508C189.772 7.6788 190.084 8.3188 190.299 9.0708C190.523 9.8148 190.635 10.6508 190.635 11.5788C190.635 12.5788 190.508 13.4908 190.252 14.3148C190.004 15.1308 189.648 15.8308 189.184 16.4148C188.72 16.9988 188.164 17.4508 187.516 17.7708C186.876 18.0908 186.16 18.2508 185.368 18.2508C184.984 18.2508 184.64 18.2108 184.336 18.1308C184.032 18.0588 183.752 17.9548 183.496 17.8188C183.24 17.6828 183.004 17.5228 182.788 17.3388C182.572 17.1468 182.368 16.9348 182.176 16.7028L182.044 17.4468C181.988 17.6788 181.896 17.8428 181.768 17.9388C181.64 18.0268 181.468 18.0708 181.252 18.0708H179.056V0.1788H182.368V7.1268ZM200.614 10.4268C200.614 10.0828 200.566 9.7548 200.47 9.4428C200.382 9.1308 200.238 8.8548 200.038 8.6148C199.838 8.3748 199.586 8.1868 199.282 8.0508C198.978 7.9068 198.614 7.8348 198.19 7.8348C197.398 7.8348 196.778 8.0588 196.33 8.5068C195.882 8.9548 195.59 9.5948 195.454 10.4268H200.614ZM195.406 12.3948C195.51 13.5548 195.838 14.4028 196.39 14.9388C196.95 15.4748 197.678 15.7428 198.574 15.7428C199.03 15.7428 199.422 15.6908 199.75 15.5868C200.086 15.4748 200.378 15.3548 200.626 15.2268C200.882 15.0908 201.11 14.9708 201.31 14.8668C201.518 14.7548 201.722 14.6988 201.922 14.6988C202.178 14.6988 202.378 14.7948 202.522 14.9868L203.482 16.1868C203.13 16.5948 202.742 16.9348 202.318 17.2068C201.894 17.4708 201.454 17.6828 200.998 17.8428C200.542 17.9948 200.082 18.0988 199.618 18.1548C199.154 18.2188 198.706 18.2508 198.274 18.2508C197.41 18.2508 196.602 18.1108 195.85 17.8308C195.106 17.5428 194.454 17.1228 193.894 16.5708C193.342 16.0108 192.906 15.3188 192.586 14.4948C192.266 13.6708 192.106 12.7148 192.106 11.6268C192.106 10.7868 192.242 9.9948 192.514 9.2508C192.794 8.5068 193.194 7.8588 193.714 7.3068C194.234 6.7548 194.866 6.3188 195.61 5.9988C196.354 5.6708 197.194 5.5068 198.13 5.5068C198.922 5.5068 199.65 5.6348 200.314 5.8908C200.986 6.1388 201.562 6.5028 202.042 6.9828C202.53 7.4628 202.906 8.0548 203.17 8.7588C203.442 9.4548 203.578 10.2508 203.578 11.1468C203.578 11.3948 203.566 11.5988 203.542 11.7588C203.518 11.9188 203.478 12.0468 203.422 12.1428C203.366 12.2388 203.29 12.3068 203.194 12.3468C203.098 12.3788 202.974 12.3948 202.822 12.3948H195.406ZM208.742 7.7388C209.134 7.0348 209.586 6.4788 210.098 6.0708C210.61 5.6628 211.21 5.4588 211.898 5.4588C212.458 5.4588 212.914 5.5908 213.266 5.8548L213.05 8.3028C213.01 8.4628 212.946 8.5748 212.858 8.6388C212.778 8.6948 212.666 8.7228 212.522 8.7228C212.394 8.7228 212.21 8.7068 211.97 8.6748C211.73 8.6348 211.506 8.6148 211.298 8.6148C210.994 8.6148 210.722 8.6588 210.482 8.7468C210.25 8.8348 210.042 8.9588 209.858 9.1188C209.674 9.2788 209.506 9.4748 209.354 9.7068C209.21 9.9388 209.074 10.2028 208.946 10.4988V18.0708H205.634V5.6988H207.59C207.926 5.6988 208.158 5.7588 208.286 5.8788C208.414 5.9988 208.506 6.2068 208.562 6.5028L208.742 7.7388Z" fill="black"/>
</svg>
