<svg width="109" height="56" viewBox="0 0 109 56" fill="none" xmlns="http://www.w3.org/2000/svg">
<path d="M19.8322 19.5309L12.1405 38.6416H8.55801L0.866305 19.5309H4.05362C4.39606 19.5309 4.67265 19.6143 4.88338 19.7811C5.10289 19.9392 5.26533 20.1455 5.3707 20.4001L9.5063 31.4109C9.66435 31.8236 9.81801 32.2757 9.96728 32.7675C10.1253 33.2504 10.2702 33.7597 10.4019 34.2953C10.5161 33.7597 10.639 33.2504 10.7707 32.7675C10.9112 32.2757 11.0605 31.8236 11.2185 31.4109L15.3278 20.4001C15.4156 20.1806 15.5692 19.9831 15.7887 19.8075C16.017 19.6231 16.298 19.5309 16.6317 19.5309H19.8322ZM27.579 30.2518C27.579 29.8743 27.5263 29.5143 27.421 29.1718C27.3244 28.8294 27.1663 28.5265 26.9468 28.2631C26.7273 27.9997 26.4507 27.7933 26.1171 27.644C25.7834 27.486 25.3839 27.407 24.9185 27.407C24.0493 27.407 23.3688 27.6528 22.8771 28.1445C22.3854 28.6362 22.0649 29.3387 21.9156 30.2518H27.579ZM21.8629 32.4118C21.9771 33.685 22.3371 34.6157 22.9429 35.204C23.5576 35.7923 24.3566 36.0865 25.34 36.0865C25.8405 36.0865 26.2707 36.0294 26.6307 35.9153C26.9995 35.7923 27.32 35.6606 27.5922 35.5201C27.8732 35.3709 28.1234 35.2392 28.3429 35.125C28.5712 35.0021 28.7951 34.9406 29.0146 34.9406C29.2956 34.9406 29.5151 35.046 29.6732 35.2567L30.7268 36.5738C30.3405 37.0216 29.9146 37.3948 29.4493 37.6933C28.9839 37.9831 28.501 38.2157 28.0005 38.3914C27.5 38.5582 26.9951 38.6723 26.4858 38.7338C25.9766 38.804 25.4849 38.8392 25.0107 38.8392C24.0624 38.8392 23.1756 38.6855 22.3502 38.3782C21.5337 38.0621 20.818 37.6011 20.2034 36.9953C19.5976 36.3806 19.119 35.6211 18.7678 34.7167C18.4166 33.8123 18.241 32.7631 18.241 31.5689C18.241 30.647 18.3902 29.7777 18.6888 28.9611C18.9961 28.1445 19.4351 27.4333 20.0058 26.8275C20.5766 26.2216 21.2702 25.7431 22.0868 25.3918C22.9034 25.0318 23.8254 24.8518 24.8527 24.8518C25.7219 24.8518 26.521 24.9923 27.2497 25.2733C27.9873 25.5455 28.6195 25.945 29.1463 26.4718C29.6819 26.9987 30.0946 27.6484 30.3844 28.4211C30.6829 29.185 30.8322 30.0587 30.8322 31.0421C30.8322 31.3143 30.819 31.5382 30.7927 31.7138C30.7663 31.8894 30.7224 32.0299 30.661 32.1353C30.5995 32.2406 30.5161 32.3153 30.4107 32.3592C30.3054 32.3943 30.1693 32.4118 30.0024 32.4118H21.8629ZM37.6223 38.8523C37.0077 38.8523 36.4633 38.7645 35.9891 38.5889C35.515 38.4045 35.1155 38.1455 34.7906 37.8118C34.4657 37.4782 34.2199 37.0743 34.053 36.6001C33.8862 36.126 33.8028 35.5904 33.8028 34.9933V27.6704H32.5252C32.3321 27.6704 32.1652 27.6089 32.0248 27.486C31.893 27.3631 31.8272 27.1787 31.8272 26.9328V25.5104L34.0004 25.1153L34.7379 21.5987C34.8345 21.2036 35.1023 21.006 35.5413 21.006H37.4379V25.1416H40.9413V27.6704H37.4379V34.7562C37.4379 35.1338 37.5257 35.4323 37.7013 35.6518C37.8857 35.8714 38.1448 35.9811 38.4784 35.9811C38.654 35.9811 38.8033 35.9636 38.9262 35.9284C39.0491 35.8845 39.1545 35.8406 39.2423 35.7967C39.3301 35.744 39.4091 35.7001 39.4794 35.665C39.5584 35.6211 39.6374 35.5992 39.7165 35.5992C39.8218 35.5992 39.9096 35.6255 39.9799 35.6782C40.0501 35.7221 40.1204 35.8011 40.1906 35.9153L41.2838 37.6538C40.7833 38.0489 40.2169 38.3475 39.5848 38.5494C38.9526 38.7514 38.2984 38.8523 37.6223 38.8523ZM46.5502 19.004V38.6416H42.9151V19.004H46.5502ZM53.3175 25.0626V38.6416H49.6824V25.0626H53.3175ZM53.7521 21.2036C53.7521 21.5109 53.6907 21.7962 53.5677 22.0597C53.4448 22.3231 53.278 22.5557 53.0673 22.7577C52.8653 22.9597 52.6238 23.1177 52.3429 23.2318C52.0707 23.346 51.7765 23.4031 51.4604 23.4031C51.1619 23.4031 50.8765 23.346 50.6043 23.2318C50.3409 23.1177 50.1082 22.9597 49.9063 22.7577C49.7043 22.5557 49.5419 22.3231 49.419 22.0597C49.3048 21.7962 49.2477 21.5109 49.2477 21.2036C49.2477 20.8962 49.3048 20.6109 49.419 20.3475C49.5419 20.0753 49.7043 19.8382 49.9063 19.6362C50.1082 19.4343 50.3409 19.2762 50.6043 19.1621C50.8765 19.0479 51.1619 18.9909 51.4604 18.9909C51.7765 18.9909 52.0707 19.0479 52.3429 19.1621C52.6238 19.2762 52.8653 19.4343 53.0673 19.6362C53.278 19.8382 53.4448 20.0753 53.5677 20.3475C53.6907 20.6109 53.7521 20.8962 53.7521 21.2036ZM59.7913 26.6431C60.0635 26.3797 60.3445 26.1382 60.6343 25.9187C60.9328 25.6992 61.2445 25.5104 61.5694 25.3523C61.903 25.1943 62.2586 25.0714 62.6362 24.9836C63.0225 24.8957 63.4396 24.8518 63.8874 24.8518C64.625 24.8518 65.2791 24.9792 65.8499 25.2338C66.4206 25.4884 66.8991 25.844 67.2855 26.3006C67.6806 26.7572 67.9747 27.3016 68.1679 27.9338C68.3699 28.566 68.4708 29.2597 68.4708 30.0148V38.6416H64.8489V30.0148C64.8489 29.2597 64.6733 28.6757 64.3221 28.2631C63.9708 27.8416 63.4528 27.6309 62.7679 27.6309C62.2586 27.6309 61.7801 27.7406 61.3323 27.9601C60.8845 28.1797 60.4586 28.487 60.0547 28.8821V38.6416H56.4196V25.0626H58.6586C59.1152 25.0626 59.4182 25.2733 59.5674 25.6948L59.7913 26.6431ZM75.0004 19.004V30.1465H75.6063C75.8346 30.1465 76.0146 30.1157 76.1463 30.0543C76.278 29.984 76.4097 29.8611 76.5414 29.6855L79.5443 25.6816C79.6936 25.4797 79.8604 25.326 80.0448 25.2206C80.238 25.1153 80.4795 25.0626 80.7692 25.0626H84.0882L80.1897 30.0148C79.8824 30.4275 79.5268 30.7523 79.1229 30.9894C79.3248 31.1299 79.5004 31.2923 79.6497 31.4767C79.799 31.6611 79.9439 31.8675 80.0843 32.0957L84.2858 38.6416H81.0195C80.7385 38.6416 80.497 38.5977 80.2951 38.5099C80.0931 38.4133 79.9263 38.2465 79.7946 38.0094L76.739 33.0177C76.616 32.807 76.4887 32.6709 76.357 32.6094C76.2253 32.5479 76.0278 32.5172 75.7643 32.5172H75.0004V38.6416H71.3653V19.004H75.0004ZM94.1875 27.8548C94.0909 28.004 93.99 28.1138 93.8846 28.184C93.788 28.2455 93.6519 28.2762 93.4763 28.2762C93.3007 28.2762 93.1207 28.2323 92.9363 28.1445C92.7519 28.0567 92.5456 27.9645 92.3173 27.8679C92.089 27.7626 91.8256 27.666 91.527 27.5782C91.2373 27.4904 90.8992 27.4465 90.5129 27.4465C89.9246 27.4465 89.468 27.5694 89.1431 27.8153C88.8182 28.0523 88.6558 28.3684 88.6558 28.7636C88.6558 29.0357 88.748 29.264 88.9324 29.4484C89.1168 29.6328 89.3582 29.7953 89.6568 29.9357C89.9641 30.0675 90.3109 30.1948 90.6973 30.3177C91.0836 30.4318 91.4787 30.5592 91.8826 30.6997C92.2953 30.8401 92.6948 31.0026 93.0812 31.187C93.4675 31.3714 93.81 31.604 94.1085 31.885C94.4158 32.1572 94.6617 32.4909 94.8461 32.886C95.0304 33.2723 95.1226 33.7421 95.1226 34.2953C95.1226 34.9538 94.9997 35.564 94.7539 36.126C94.5168 36.6792 94.1656 37.1577 93.7002 37.5616C93.2348 37.9655 92.6553 38.2816 91.9617 38.5099C91.268 38.7382 90.469 38.8523 89.5646 38.8523C89.0992 38.8523 88.6382 38.8084 88.1817 38.7206C87.7251 38.6416 87.2904 38.5275 86.8778 38.3782C86.4651 38.2201 86.0787 38.0401 85.7187 37.8382C85.3587 37.6362 85.047 37.4167 84.7836 37.1797L85.6265 35.8231C85.7231 35.665 85.8417 35.5421 85.9822 35.4543C86.1314 35.3665 86.3202 35.3226 86.5485 35.3226C86.768 35.3226 86.97 35.3797 87.1543 35.4938C87.3387 35.5992 87.5451 35.7177 87.7734 35.8494C88.0017 35.9723 88.2695 36.0909 88.5768 36.205C88.8929 36.3104 89.2836 36.3631 89.749 36.3631C90.1002 36.3631 90.4031 36.3236 90.6578 36.2445C90.9124 36.1655 91.1187 36.0601 91.2768 35.9284C91.4348 35.7879 91.549 35.6343 91.6192 35.4675C91.6982 35.2918 91.7378 35.1118 91.7378 34.9275C91.7378 34.6289 91.6412 34.3875 91.448 34.2031C91.2636 34.0099 91.0178 33.8431 90.7104 33.7026C90.4119 33.5621 90.0651 33.4348 89.67 33.3206C89.2748 33.2065 88.8709 33.0792 88.4582 32.9387C88.0543 32.7982 87.6548 32.6314 87.2597 32.4382C86.8734 32.245 86.5265 32.0036 86.2192 31.7138C85.9207 31.4153 85.6748 31.0509 85.4817 30.6206C85.2973 30.1904 85.2051 29.6679 85.2051 29.0533C85.2051 28.4914 85.3148 27.9601 85.5343 27.4597C85.7539 26.9504 86.0831 26.5026 86.5222 26.1162C86.9612 25.7299 87.5056 25.4226 88.1553 25.1943C88.8139 24.966 89.5734 24.8518 90.4339 24.8518C91.3997 24.8518 92.2778 25.0099 93.068 25.326C93.8582 25.6421 94.508 26.0548 95.0173 26.564L94.1875 27.8548Z" fill="black"/>
<path d="M102.324 23.2822C102.587 23.2822 102.798 23.2612 102.956 23.219C103.119 23.1769 103.243 23.1136 103.327 23.0294C103.417 22.9451 103.475 22.8423 103.501 22.7212C103.533 22.6 103.549 22.4604 103.549 22.3023C103.549 22.1495 103.536 22.0178 103.509 21.9072C103.483 21.7913 103.43 21.6965 103.351 21.6227C103.277 21.5437 103.169 21.4857 103.027 21.4489C102.885 21.4067 102.701 21.3856 102.474 21.3856H101.715V23.2822H102.324ZM105.809 27.0122C106.246 26.5749 106.589 26.0613 106.836 25.4712C107.084 24.8812 107.208 24.2411 107.208 23.5509C107.208 23.0978 107.152 22.6632 107.042 22.247C106.931 21.8308 106.773 21.4436 106.567 21.0854C106.367 20.7218 106.125 20.3926 105.84 20.0975C105.556 19.8025 105.237 19.5496 104.884 19.3389C104.537 19.1282 104.16 18.9675 103.754 18.8569C103.349 18.741 102.927 18.683 102.49 18.683C101.831 18.683 101.218 18.8095 100.649 19.0623C100.08 19.3152 99.5844 19.6603 99.1629 20.0975C98.7467 20.5348 98.4174 21.0511 98.1751 21.6464C97.938 22.2365 97.8195 22.8713 97.8195 23.5509C97.8195 24.2305 97.938 24.8654 98.1751 25.4554C98.4174 26.0402 98.7467 26.5512 99.1629 26.9885C99.5844 27.4205 100.08 27.7629 100.649 28.0158C101.218 28.2634 101.831 28.3872 102.49 28.3872C103.127 28.3872 103.723 28.2739 104.276 28.0474C104.829 27.8156 105.316 27.4942 105.738 27.0833H104.039C103.781 27.0833 103.599 26.9911 103.493 26.8067L102.537 24.839C102.485 24.76 102.424 24.702 102.355 24.6652C102.292 24.623 102.195 24.6019 102.063 24.6019H101.715V27.0833H99.8267V19.979H102.474C103.491 19.979 104.234 20.1581 104.702 20.5164C105.171 20.8746 105.406 21.3883 105.406 22.0574C105.406 22.5157 105.29 22.9214 105.058 23.2743C104.832 23.6273 104.473 23.8881 103.983 24.0567C104.12 24.1304 104.234 24.2253 104.323 24.3412C104.413 24.4518 104.497 24.5835 104.576 24.7363L105.809 27.0122ZM102.49 17.6952C103.027 17.6952 103.546 17.7663 104.047 17.9086C104.547 18.0455 105.013 18.2405 105.445 18.4934C105.883 18.7462 106.278 19.0518 106.631 19.41C106.989 19.7683 107.294 20.1634 107.547 20.5954C107.806 21.0274 108.003 21.4936 108.14 21.9941C108.282 22.4946 108.353 23.0135 108.353 23.5509C108.353 24.0883 108.282 24.6072 108.14 25.1077C108.003 25.6029 107.806 26.0665 107.547 26.4985C107.294 26.9305 106.989 27.3256 106.631 27.6839C106.278 28.0421 105.883 28.3477 105.445 28.6006C105.013 28.8535 104.547 29.051 104.047 29.1933C103.546 29.3302 103.027 29.3987 102.49 29.3987C101.952 29.3987 101.434 29.3302 100.933 29.1933C100.438 29.051 99.9742 28.8535 99.5422 28.6006C99.1102 28.3477 98.7151 28.0421 98.3568 27.6839C97.9986 27.3256 97.693 26.9305 97.4402 26.4985C97.1873 26.0665 96.9897 25.6029 96.8475 25.1077C96.7105 24.6072 96.642 24.0883 96.642 23.5509C96.642 23.0135 96.7105 22.4946 96.8475 21.9941C96.9897 21.4936 97.1873 21.0274 97.4402 20.5954C97.693 20.1634 97.9986 19.7683 98.3568 19.41C98.7151 19.0518 99.1102 18.7462 99.5422 18.4934C99.9742 18.2405 100.438 18.0455 100.933 17.9086C101.434 17.7663 101.952 17.6952 102.49 17.6952Z" fill="black"/>
</svg>
