<svg width="25" height="24" viewBox="0 0 25 24" fill="none" xmlns="http://www.w3.org/2000/svg">
<g clip-path="url(#clip0_58_1621)">
<path d="M9.5 10.5H15.5" stroke="black" stroke-width="1.5" stroke-linecap="round" stroke-linejoin="round"/>
<path d="M9.5 13.5H15.5" stroke="black" stroke-width="1.5" stroke-linecap="round" stroke-linejoin="round"/>
<path d="M7.99356 19.7916C9.88406 20.8857 12.108 21.255 14.2506 20.8305C16.3933 20.4061 18.3084 19.2169 19.6391 17.4847C20.9697 15.7525 21.625 13.5955 21.4827 11.4158C21.3404 9.23617 20.4103 7.18265 18.8657 5.63813C17.3212 4.0936 15.2677 3.16349 13.088 3.0212C10.9084 2.87892 8.75138 3.53417 7.01916 4.8648C5.28695 6.19543 4.09777 8.1106 3.67333 10.2533C3.24889 12.3959 3.61817 14.6198 4.71231 16.5103L3.5395 20.0119C3.49543 20.144 3.48903 20.2858 3.52103 20.4214C3.55302 20.557 3.62215 20.681 3.72065 20.7795C3.81915 20.878 3.94314 20.9471 4.07871 20.9791C4.21429 21.0111 4.3561 21.0047 4.48825 20.9606L7.99356 19.7916Z" stroke="black" stroke-width="1.5" stroke-linecap="round" stroke-linejoin="round"/>
</g>
<defs>
<clipPath id="clip0_58_1621">
<rect width="24" height="24" fill="white" transform="translate(0.5)"/>
</clipPath>
</defs>
</svg>
