<svg width="13" height="13" viewBox="0 0 13 13" fill="none" xmlns="http://www.w3.org/2000/svg">
<path fill-rule="evenodd" clip-rule="evenodd" d="M5.80414 8.96739C6.03225 8.96739 6.21718 9.15232 6.21718 9.38043V10.9978C8.48788 9.67152 9.85406 8.73327 10.678 7.91408C11.1561 7.43868 11.4191 7.03327 11.5719 6.6467C11.7255 6.258 11.7933 5.8237 11.7933 5.25C11.7933 3.19694 10.1289 1.53261 8.07588 1.53261H5.18457C3.13151 1.53261 1.46718 3.19694 1.46718 5.25C1.46718 7.30306 3.13151 8.96739 5.18457 8.96739H5.80414ZM6.21718 12.1915C11.7223 9.02333 12.8259 7.72571 12.8259 5.25C12.8259 2.62665 10.6992 0.5 8.07588 0.5H5.18457C2.56122 0.5 0.43457 2.62665 0.43457 5.25C0.43457 7.87335 2.56122 10 5.18457 10V12.0723C5.18457 12.3883 5.52489 12.5872 5.79943 12.4307C5.94142 12.3498 6.08065 12.2701 6.21718 12.1915Z" fill="#687684"/>
</svg>
