<svg width="18" height="18" viewBox="0 0 18 18" fill="none" xmlns="http://www.w3.org/2000/svg">
<g clip-path="url(#clip0_1_608)">
<path d="M14.625 2.8125H3.375C3.06434 2.8125 2.8125 3.06434 2.8125 3.375V14.625C2.8125 14.9357 3.06434 15.1875 3.375 15.1875H14.625C14.9357 15.1875 15.1875 14.9357 15.1875 14.625V3.375C15.1875 3.06434 14.9357 2.8125 14.625 2.8125Z" stroke="black" stroke-linecap="round" stroke-linejoin="round"/>
<path d="M12.375 1.6875V3.9375" stroke="black" stroke-linecap="round" stroke-linejoin="round"/>
<path d="M5.625 1.6875V3.9375" stroke="black" stroke-linecap="round" stroke-linejoin="round"/>
<path d="M2.8125 6.1875H15.1875" stroke="black" stroke-linecap="round" stroke-linejoin="round"/>
<path d="M9 10.125C9.46599 10.125 9.84375 9.74724 9.84375 9.28125C9.84375 8.81526 9.46599 8.4375 9 8.4375C8.53401 8.4375 8.15625 8.81526 8.15625 9.28125C8.15625 9.74724 8.53401 10.125 9 10.125Z" fill="black"/>
<path d="M12.0938 10.125C12.5597 10.125 12.9375 9.74724 12.9375 9.28125C12.9375 8.81526 12.5597 8.4375 12.0938 8.4375C11.6278 8.4375 11.25 8.81526 11.25 9.28125C11.25 9.74724 11.6278 10.125 12.0938 10.125Z" fill="black"/>
<path d="M5.90625 12.9375C6.37224 12.9375 6.75 12.5597 6.75 12.0938C6.75 11.6278 6.37224 11.25 5.90625 11.25C5.44026 11.25 5.0625 11.6278 5.0625 12.0938C5.0625 12.5597 5.44026 12.9375 5.90625 12.9375Z" fill="black"/>
<path d="M9 12.9375C9.46599 12.9375 9.84375 12.5597 9.84375 12.0938C9.84375 11.6278 9.46599 11.25 9 11.25C8.53401 11.25 8.15625 11.6278 8.15625 12.0938C8.15625 12.5597 8.53401 12.9375 9 12.9375Z" fill="black"/>
<path d="M12.0938 12.9375C12.5597 12.9375 12.9375 12.5597 12.9375 12.0938C12.9375 11.6278 12.5597 11.25 12.0938 11.25C11.6278 11.25 11.25 11.6278 11.25 12.0938C11.25 12.5597 11.6278 12.9375 12.0938 12.9375Z" fill="black"/>
</g>
<defs>
<clipPath id="clip0_1_608">
<rect width="18" height="18" fill="white"/>
</clipPath>
</defs>
</svg>
