<svg width="18" height="18" viewBox="0 0 18 18" fill="none" xmlns="http://www.w3.org/2000/svg">
<g clip-path="url(#clip0_74_3683)">
<path d="M13.7854 15.6227H3.99924C3.85505 15.6227 3.71676 15.5654 3.6148 15.4635C3.51285 15.3615 3.45557 15.2232 3.45557 15.079V3.1182C3.45557 2.97401 3.51285 2.83572 3.6148 2.73376C3.71676 2.6318 3.85505 2.57452 3.99924 2.57452H10.5233L14.329 6.38024V15.079C14.329 15.2232 14.2718 15.3615 14.1698 15.4635C14.0678 15.5654 13.9296 15.6227 13.7854 15.6227Z" stroke="#8E8E93" stroke-linecap="round" stroke-linejoin="round"/>
<path d="M10.5234 2.57452V6.38024H14.3292" stroke="#8E8E93" stroke-linecap="round" stroke-linejoin="round"/>
<path d="M6.71729 9.64227H11.0667" stroke="#8E8E93" stroke-linecap="round" stroke-linejoin="round"/>
<path d="M6.71729 11.817H11.0667" stroke="#8E8E93" stroke-linecap="round" stroke-linejoin="round"/>
</g>
<defs>
<clipPath id="clip0_74_3683">
<rect width="17.3976" height="17.3976" fill="white" transform="translate(0.193848 0.39978)"/>
</clipPath>
</defs>
</svg>
