<svg width="32" height="32" viewBox="0 0 32 32" fill="none" xmlns="http://www.w3.org/2000/svg">
<path d="M16.0003 2.66667C8.64033 2.66667 2.66699 8.64 2.66699 16C2.66699 23.36 8.64033 29.3333 16.0003 29.3333C23.3603 29.3333 29.3337 23.36 29.3337 16C29.3337 8.64 23.3603 2.66667 16.0003 2.66667ZM16.0003 8C18.5737 8 20.667 10.0933 20.667 12.6667C20.667 15.24 18.5737 17.3333 16.0003 17.3333C13.427 17.3333 11.3337 15.24 11.3337 12.6667C11.3337 10.0933 13.427 8 16.0003 8ZM16.0003 26.6667C13.2937 26.6667 10.0937 25.5733 7.81366 22.8267C10.1494 20.995 13.032 19.9995 16.0003 19.9995C18.9687 19.9995 21.8512 20.995 24.187 22.8267C21.907 25.5733 18.707 26.6667 16.0003 26.6667Z" fill="black"/>
</svg>
